<svg width="93" height="39" viewBox="0 0 93 39" fill="none" xmlns="http://www.w3.org/2000/svg">
<g opacity="0.5">
<mask id="path-1-outside-1" maskUnits="userSpaceOnUse" x="-0.416016" y="0" width="93" height="39" fill="black">
<rect fill="white" x="-0.416016" width="93" height="39"/>
<path fill-rule="evenodd" clip-rule="evenodd" d="M3.0004 5C3.0004 3.89543 3.89583 3 5.0004 3H87.584C88.6886 3 89.584 3.89543 89.584 5V25.2141C89.584 26.3186 88.6886 27.2141 87.584 27.2141H81.3114C80.2068 27.2141 79.3114 28.1095 79.3114 29.2141V33.4301C79.3114 35.3007 76.9724 36.1475 75.7749 34.7105L70.1276 27.9337C69.7476 27.4777 69.1847 27.2141 68.5911 27.2141H5.0004C3.89583 27.2141 3.0004 26.3186 3.0004 25.2141V5Z"/>
</mask>
<path fill-rule="evenodd" clip-rule="evenodd" d="M3.0004 5C3.0004 3.89543 3.89583 3 5.0004 3H87.584C88.6886 3 89.584 3.89543 89.584 5V25.2141C89.584 26.3186 88.6886 27.2141 87.584 27.2141H81.3114C80.2068 27.2141 79.3114 28.1095 79.3114 29.2141V33.4301C79.3114 35.3007 76.9724 36.1475 75.7749 34.7105L70.1276 27.9337C69.7476 27.4777 69.1847 27.2141 68.5911 27.2141H5.0004C3.89583 27.2141 3.0004 26.3186 3.0004 25.2141V5Z" fill="#E6E6E7"/>
<path d="M70.1276 27.9337L72.4322 26.0131L70.1276 27.9337ZM75.7749 34.7105L73.4703 36.631L75.7749 34.7105ZM87.584 6H5.0004V0H87.584V6ZM86.584 25.2141V5H92.584V25.2141H86.584ZM81.3114 24.2141H87.584V30.2141H81.3114V24.2141ZM82.3114 29.2141V33.4301H76.3114V29.2141H82.3114ZM73.4703 36.631L67.8229 29.8542L72.4322 26.0131L78.0796 32.7899L73.4703 36.631ZM5.0004 24.2141H68.5911V30.2141H5.0004V24.2141ZM6.0004 5V25.2141H0.000396729V5H6.0004ZM5.0004 30.2141C2.23898 30.2141 0.000396729 27.9755 0.000396729 25.2141H6.0004C6.0004 24.6618 5.55268 24.2141 5.0004 24.2141V30.2141ZM67.8229 29.8542C68.0129 30.0822 68.2944 30.2141 68.5911 30.2141V24.2141C70.075 24.2141 71.4823 24.8732 72.4322 26.0131L67.8229 29.8542ZM82.3114 33.4301C82.3114 38.1066 76.4641 40.2236 73.4703 36.631L78.0796 32.7899C77.4808 32.0714 76.3114 32.4948 76.3114 33.4301H82.3114ZM81.3114 30.2141C81.8636 30.2141 82.3114 29.7663 82.3114 29.2141H76.3114C76.3114 26.4526 78.5499 24.2141 81.3114 24.2141V30.2141ZM92.584 25.2141C92.584 27.9755 90.3454 30.2141 87.584 30.2141V24.2141C87.0317 24.2141 86.584 24.6618 86.584 25.2141H92.584ZM5.0004 6C5.55268 6 6.0004 5.55228 6.0004 5H0.000396729C0.000396729 2.23858 2.23898 0 5.0004 0V6ZM87.584 0C90.3454 0 92.584 2.23858 92.584 5H86.584C86.584 5.55228 87.0317 6 87.584 6V0Z" fill="white" mask="url(#path-1-outside-1)"/>
</g>
<rect x="25.0132" y="11.0714" width="39.623" height="2.20128" fill="white"/>
<rect x="25.0132" y="16.2078" width="57.2332" height="2.20128" fill="white"/>
<rect x="9.60425" y="9.60388" width="10.2726" height="10.2726" fill="white"/>
</svg>
