<svg width="63" height="27" viewBox="0 0 63 27" fill="none" xmlns="http://www.w3.org/2000/svg">
<g opacity="0.5">
<mask id="path-1-outside-1" maskUnits="userSpaceOnUse" x="-0.416016" y="0.238281" width="63" height="26" fill="black">
<rect fill="white" x="-0.416016" y="0.238281" width="63" height="26"/>
<path fill-rule="evenodd" clip-rule="evenodd" d="M3 5.23828C3 4.13371 3.89543 3.23828 5 3.23828H57.584C58.6886 3.23828 59.584 4.13371 59.584 5.23828V17.0626C59.584 18.1672 58.6886 19.0626 57.584 19.0626H54.8707C53.7662 19.0626 52.8707 19.958 52.8707 21.0626V21.2103C52.8707 23.0809 50.5318 23.9277 49.3343 22.4907L47.0773 19.7822C46.6973 19.3263 46.1344 19.0626 45.5408 19.0626H5C3.89543 19.0626 3 18.1672 3 17.0626V5.23828Z"/>
</mask>
<path fill-rule="evenodd" clip-rule="evenodd" d="M3 5.23828C3 4.13371 3.89543 3.23828 5 3.23828H57.584C58.6886 3.23828 59.584 4.13371 59.584 5.23828V17.0626C59.584 18.1672 58.6886 19.0626 57.584 19.0626H54.8707C53.7662 19.0626 52.8707 19.958 52.8707 21.0626V21.2103C52.8707 23.0809 50.5318 23.9277 49.3343 22.4907L47.0773 19.7822C46.6973 19.3263 46.1344 19.0626 45.5408 19.0626H5C3.89543 19.0626 3 18.1672 3 17.0626V5.23828Z" fill="#E6E6E7"/>
<path d="M47.0773 19.7822L49.3819 17.8617L47.0773 19.7822ZM57.584 6.23828H5V0.238281H57.584V6.23828ZM56.584 17.0626V5.23828H62.584V17.0626H56.584ZM54.8707 16.0626H57.584V22.0626H54.8707V16.0626ZM55.8707 21.0626V21.2103H49.8707V21.0626H55.8707ZM47.0296 24.4112L44.7726 21.7028L49.3819 17.8617L51.639 20.5701L47.0296 24.4112ZM5 16.0626H45.5408V22.0626H5V16.0626ZM6 5.23828V17.0626H0V5.23828H6ZM5 22.0626C2.23858 22.0626 0 19.824 0 17.0626H6C6 16.5103 5.55228 16.0626 5 16.0626V22.0626ZM44.7726 21.7028C44.9626 21.9308 45.2441 22.0626 45.5408 22.0626V16.0626C47.0247 16.0626 48.432 16.7217 49.3819 17.8617L44.7726 21.7028ZM55.8707 21.2103C55.8707 25.8868 50.0235 28.0038 47.0296 24.4112L51.639 20.5701C51.0402 19.8516 49.8707 20.275 49.8707 21.2103H55.8707ZM54.8707 22.0626C55.423 22.0626 55.8707 21.6149 55.8707 21.0626H49.8707C49.8707 18.3012 52.1093 16.0626 54.8707 16.0626V22.0626ZM62.584 17.0626C62.584 19.824 60.3454 22.0626 57.584 22.0626V16.0626C57.0317 16.0626 56.584 16.5103 56.584 17.0626H62.584ZM5 6.23828C5.55228 6.23828 6 5.79056 6 5.23828H0C0 2.47686 2.23857 0.238281 5 0.238281V6.23828ZM57.584 0.238281C60.3454 0.238281 62.584 2.47686 62.584 5.23828H56.584C56.584 5.79057 57.0317 6.23828 57.584 6.23828V0.238281Z" fill="white" mask="url(#path-1-outside-1)"/>
</g>
<rect x="17.387" y="8.51367" width="25.8944" height="1.43858" fill="white"/>
<rect x="17.387" y="11.8706" width="37.403" height="1.43858" fill="white"/>
<rect x="7.31592" y="7.55505" width="6.71335" height="6.71335" fill="white"/>
</svg>
