<svg width="146" height="138" viewBox="0 0 146 138" fill="none" xmlns="http://www.w3.org/2000/svg">
<circle cx="65" cy="65" r="65" fill="#F3F3F3"/>
<mask id="mask0" mask-type="alpha" maskUnits="userSpaceOnUse" x="0" y="0" width="130" height="130">
<circle cx="65" cy="65" r="65" fill="#C4C4C4"/>
</mask>
<g mask="url(#mask0)">
<path d="M40.5 111L20.5 117C29.1667 124.5 47.7 139.4 52.5 139C58.5 138.5 94 131.5 103.5 128C111.1 125.2 110 119.833 108.5 117.5L96.5 113L85.5 111L87.5 108.5L81.5 103C86.1667 98.5 96.2 88.2 99 83C102.5 76.5 103 63 100.5 56C98 49 78 26 77 25C76.2 24.2 59 24 50.5 24L27 56L36 101C38.5 102 43.6 104 44 104C44.4 104 41.5 107 40 108.5L40.5 111Z" fill="white"/>
<path d="M49.7229 99.785C41.3636 107.63 37.1527 101.341 36.2276 101.013C28.7013 98.3443 20.6878 80.1308 22.7325 67.8468C21.751 46.2272 28.0488 33.4521 31.3203 29.7669C42.1165 13.0609 57.9018 9.6781 64.4449 10.497L77.9401 12.5696L93.8889 22.3966L103.704 39.594C104.522 46.1454 107.455 59.0895 107.384 60.4765C105.942 88.7296 102.295 89.1061 102.143 90.3248C101.059 99.004 88.0739 104.863 82.2739 103.153C83.1102 103.815 83.8147 104.521 83.4608 104.698L87.7548 108.384V112.069L83.4608 104.698L80.9374 102.533C80.7374 102.394 80.5557 102.238 80.3939 102.066L79.1669 101.013L74.6423 103.086V94.8713L81.6206 88.7295L88.3682 76.4457H93.8889C94.7068 75.6268 96.588 73.9889 97.5695 73.9888C98.7963 73.9886 98.7963 70.3038 98.7963 69.0752C98.7963 68.0924 96.3426 64.5712 95.1158 62.9335H91.4353V59.2482C86.5279 57.2827 75.4864 54.3346 70.5791 53.1062C59.7829 48.1927 57.9018 38.7752 58.3107 34.6806C54.3848 30.7498 50.9234 34.6806 50.1056 37.1374L47.6519 49.4212L38.6813 56.7916V62.9335L32.9299 63.7019L31.3203 70.3038L33.774 74.8331L37.4545 76.4457L41.135 77.6741L48.496 88.7295L53.4034 93.6431V103.47L49.7229 99.785Z" fill="#EEFC9A"/>
<path d="M91.4602 58.8069L88.8762 71.7441C86.9381 85.7369 78.9535 95.1391 64.6896 96.9312C52.8289 95.1391 41.8209 86.3752 40.3997 71.4004L37.9707 56.9412" stroke="#08090C" stroke-width="2.5" stroke-miterlimit="10" stroke-linecap="round" stroke-linejoin="round"/>
<path d="M35.7742 56.9655C35.7742 56.9655 50.9683 54.3388 49.3662 37.4738" stroke="#08090C" stroke-width="2.5" stroke-miterlimit="10" stroke-linecap="round" stroke-linejoin="round"/>
<path d="M58.4606 33.4475C58.4606 33.4475 56.4709 47.4403 69.9854 52.6938" stroke="#08090C" stroke-width="2.5" stroke-miterlimit="10" stroke-linecap="round" stroke-linejoin="round"/>
<path d="M74.4541 40.4431C74.4541 40.4431 74.4541 57.6273 94.1703 58.4865" stroke="#08090C" stroke-width="2.5" stroke-miterlimit="10" stroke-linecap="round" stroke-linejoin="round"/>
<path d="M48.9753 13.6121C48.9753 13.6121 69.6218 3.10515 89.493 19.4547C97.581 26.7457 103.229 35.6012 105.675 51.641C109.97 79.7948 103.229 103.462 83.6539 103.462" stroke="#08090C" stroke-width="2.5" stroke-miterlimit="10" stroke-linecap="round" stroke-linejoin="round"/>
<path d="M42.5662 18.0066C42.5662 18.0066 24.4521 27.3352 22.9275 57.6775C21.4029 88.0198 28.5997 99.7595 42.566 103.461" stroke="#08090C" stroke-width="2.5" stroke-miterlimit="10" stroke-linecap="round" stroke-linejoin="round"/>
<path d="M52.8296 65.2867V69.1163" stroke="#08090C" stroke-width="4" stroke-miterlimit="10" stroke-linecap="round" stroke-linejoin="round"/>
<path d="M39.1861 64.6496C37.8424 62.1701 33.6304 62.4402 32.2609 65.2878C30.8914 68.1355 31.0722 77.0467 38.9019 77.0467" stroke="#08090C" stroke-width="2.5" stroke-miterlimit="10" stroke-linecap="round" stroke-linejoin="round"/>
<path d="M90.45 64.4045C91.7937 61.9251 95.9023 62.4406 97.2977 65.2883C98.6672 68.1359 98.4863 77.0471 90.6567 77.0471" stroke="#08090C" stroke-width="2.5" stroke-miterlimit="10" stroke-linecap="round" stroke-linejoin="round"/>
<path d="M76.5481 65.2867V69.1163" stroke="#08090C" stroke-width="4" stroke-miterlimit="10" stroke-linecap="round" stroke-linejoin="round"/>
<path d="M59.8835 83.2266C59.8835 83.2266 61.3796 85.737 64.6898 85.737C68.0001 85.737 69.3747 83.2266 69.3747 83.2266" stroke="#08090C" stroke-width="2" stroke-miterlimit="10" stroke-linecap="round" stroke-linejoin="round"/>
<path d="M65.2854 70.6198L66.8953 73.8357L65.1304 76.014" stroke="#08090C" stroke-width="2" stroke-miterlimit="10" stroke-linecap="round" stroke-linejoin="round"/>
<path d="M56.6019 60.0832C56.6019 60.0832 55.1549 58.0211 52.3899 58.0211C51.2271 58.0211 49.5734 58.5366 48.178 60.0832" stroke="#08090C" stroke-width="2" stroke-miterlimit="10" stroke-linecap="round" stroke-linejoin="round"/>
<path d="M72.3098 60.0832C72.3098 60.0832 73.7569 58.0211 76.5218 58.0211C77.6846 58.0211 79.3384 58.5366 80.7338 60.0832" stroke="#08090C" stroke-width="2" stroke-miterlimit="10" stroke-linecap="round" stroke-linejoin="round"/>
<path d="M53.8616 93.1371C53.8616 93.1371 53.8616 99.6569 53.8616 102.431C53.8616 105.205 52.3629 108.642 45.3343 110.311C37.944 112.054 36.4969 111.44 29.6751 113.38C23.6026 115.098 16.7549 119.713 14.636 129.999" stroke="#08090C" stroke-width="2.5" stroke-miterlimit="10" stroke-linecap="round" stroke-linejoin="round"/>
<path d="M74.3035 95.1392C74.3035 95.1392 74.3035 99.6561 74.3035 102.43C74.3035 105.204 75.8022 108.641 82.8308 110.31C90.2211 112.053 91.6682 111.44 98.49 113.379C104.562 115.097 111.41 119.713 113.529 129.999" stroke="#08090C" stroke-width="2.5" stroke-miterlimit="10" stroke-linecap="round" stroke-linejoin="round"/>
<path d="M45.7312 102.226C37.1672 99.7588 37.1672 89.8882 37.1672 89.8882" stroke="#08090C" stroke-width="2.5" stroke-miterlimit="10" stroke-linecap="round" stroke-linejoin="round"/>
<path d="M81.2078 102.226C89.7718 99.7588 89.7717 89.8882 89.7717 89.8882" stroke="#08090C" stroke-width="2.5" stroke-miterlimit="10" stroke-linecap="round" stroke-linejoin="round"/>
<path d="M49.2096 99.8784L59.1065 108.937L48.2535 119.198L39.9846 108.495L49.2096 99.8784Z" fill="white" stroke="#08090C" stroke-width="2.5" stroke-miterlimit="10" stroke-linecap="round" stroke-linejoin="round"/>
<path d="M78.4847 99.8784L68.5879 108.937L79.4408 119.198L87.7098 108.495L78.4847 99.8784Z" fill="white" stroke="#08090C" stroke-width="2.5" stroke-miterlimit="10" stroke-linecap="round" stroke-linejoin="round"/>
<path d="M59.1067 108.935L63.8355 120.964L68.5901 108.935" fill="white"/>
<path d="M59.1067 108.935L63.8355 120.964L68.5901 108.935" stroke="#08090C" stroke-width="2.5" stroke-miterlimit="10" stroke-linecap="round" stroke-linejoin="round"/>
</g>
<circle opacity="0.3" cx="65" cy="65" r="64" stroke="#E6E6E7" stroke-width="2"/>
<g filter="url(#filter0_d)">
<circle cx="122.5" cy="110.5" r="19.5" fill="white"/>
<circle cx="122.5" cy="110.5" r="18.5" stroke="#CECECE" stroke-width="2"/>
</g>
<mask id="mask1" mask-type="alpha" maskUnits="userSpaceOnUse" x="107" y="95" width="30" height="30">
<rect x="107" y="95" width="30" height="30" fill="#C4C4C4"/>
</mask>
<g mask="url(#mask1)">
<path fill-rule="evenodd" clip-rule="evenodd" d="M120.352 101.992C118.186 99.9611 114.703 101.972 115.378 104.863L115.602 105.818C115.722 106.331 115.423 106.849 114.918 107.002L113.963 107.292C111.135 108.15 111.12 112.147 113.94 113.027L114.97 113.348C115.467 113.503 115.762 114.014 115.648 114.522L115.411 115.575C114.763 118.457 118.232 120.442 120.389 118.422L121.118 117.74C121.502 117.38 122.101 117.38 122.485 117.74L123.2 118.411C125.366 120.441 128.849 118.43 128.174 115.54L127.95 114.585C127.83 114.072 128.129 113.553 128.634 113.4L129.589 113.11C132.417 112.253 132.432 108.256 129.612 107.376L128.582 107.054C128.085 106.899 127.79 106.389 127.904 105.88L128.141 104.828C128.789 101.946 125.32 99.9606 123.163 101.98L122.434 102.663C122.05 103.023 121.451 103.023 121.067 102.662L120.352 101.992ZM117.326 104.408C117.101 103.444 118.262 102.774 118.984 103.451L119.699 104.121C120.852 105.203 122.647 105.203 123.802 104.122L124.53 103.44C125.249 102.767 126.406 103.428 126.19 104.389L125.953 105.442C125.61 106.966 126.495 108.498 127.986 108.964L129.016 109.285C129.956 109.578 129.951 110.911 129.009 111.197L128.053 111.486C126.54 111.946 125.643 113.5 126.003 115.04L126.226 115.995C126.451 116.958 125.29 117.629 124.568 116.952L123.853 116.281C122.7 115.2 120.905 115.199 119.75 116.28L119.022 116.963C118.303 117.636 117.146 116.974 117.362 116.013L117.599 114.961C117.942 113.436 117.057 111.904 115.565 111.439L114.536 111.118C113.596 110.824 113.601 109.492 114.543 109.206L115.499 108.916C117.012 108.457 117.909 106.902 117.549 105.362L117.326 104.408ZM123.01 109.488C123.424 110.206 123.171 111.086 122.506 111.47C121.842 111.853 120.953 111.633 120.539 110.915C120.124 110.197 120.378 109.317 121.042 108.934C121.707 108.55 122.595 108.77 123.01 109.488ZM124.742 108.488C125.698 110.145 125.145 112.255 123.506 113.202C121.867 114.148 119.763 113.572 118.807 111.915C117.85 110.258 118.403 108.148 120.042 107.202C121.681 106.255 123.785 106.832 124.742 108.488Z" fill="#08090C"/>
</g>
<defs>
<filter id="filter0_d" x="99" y="91" width="47" height="47" filterUnits="userSpaceOnUse" color-interpolation-filters="sRGB">
<feFlood flood-opacity="0" result="BackgroundImageFix"/>
<feColorMatrix in="SourceAlpha" type="matrix" values="0 0 0 0 0 0 0 0 0 0 0 0 0 0 0 0 0 0 127 0"/>
<feOffset dy="4"/>
<feGaussianBlur stdDeviation="2"/>
<feColorMatrix type="matrix" values="0 0 0 0 0 0 0 0 0 0 0 0 0 0 0 0 0 0 0.25 0"/>
<feBlend mode="normal" in2="BackgroundImageFix" result="effect1_dropShadow"/>
<feBlend mode="normal" in="SourceGraphic" in2="effect1_dropShadow" result="shape"/>
</filter>
</defs>
</svg>
