<?xml version="1.0" encoding="utf-8"?>
<svg width="93" height="24" viewBox="0 0 93 24" fill="none" xmlns="http://www.w3.org/2000/svg">
<path d="M2.97369 18.7891H0V0H2.97369V18.7891Z" fill="black"/>
<path d="M6.46387 2.11815C6.46387 1.66221 6.60917 1.28141 6.89727 0.980788C7.18788 0.680162 7.60124 0.527344 8.13986 0.527344C8.67848 0.527344 9.09435 0.677657 9.38746 0.980788C9.68057 1.28141 9.82837 1.66221 9.82837 2.11815C9.82837 2.56659 9.68057 2.93986 9.38746 3.23799C9.09435 3.53611 8.67848 3.68391 8.13986 3.68391C7.60124 3.68391 7.18788 3.53611 6.89727 3.23799C6.60917 2.93986 6.46387 2.56659 6.46387 2.11815ZM9.62044 18.7904H6.64925V5.55531H9.62044V18.7904Z" fill="black"/>
<path d="M15.8663 5.5541L15.9514 7.08229C16.4174 6.51861 16.9736 6.0827 17.6274 5.77456C18.2788 5.46392 19.0053 5.30859 19.8045 5.30859C20.4408 5.30859 21.017 5.39628 21.5356 5.57164C22.0542 5.74701 22.4951 6.0301 22.8633 6.42091C23.2316 6.81172 23.5147 7.32279 23.7126 7.94909C23.913 8.5779 24.0132 9.33948 24.0132 10.2364V18.7892H21.0395V10.2138C21.0395 9.75785 20.9894 9.37205 20.8867 9.0589C20.784 8.74575 20.6362 8.49022 20.4408 8.29481C20.2454 8.0994 20.0024 7.95911 19.7118 7.87393C19.4212 7.78876 19.0905 7.74617 18.7147 7.74617C18.1034 7.74617 17.5698 7.89398 17.1189 8.18709C16.6679 8.4802 16.3047 8.87602 16.0366 9.37456V18.7892H13.0654V5.5541H15.8663Z" fill="black"/>
<path d="M31.5908 13.1123L30.2706 14.4701V18.7891H27.2969V0H30.2706V10.8376L31.2 9.67514L34.8576 5.55156H38.4301L33.5123 11.068L38.9537 18.7891H35.5165L31.5908 13.1123Z" fill="black"/>
<path d="M48.0356 15.1917C48.0356 14.9787 48.0005 14.7808 47.9304 14.5979C47.8602 14.4151 47.725 14.2422 47.5195 14.0844C47.3166 13.9265 47.0285 13.7762 46.6577 13.6384C46.287 13.5006 45.8035 13.3704 45.2072 13.2476C44.4983 13.0998 43.8519 12.9169 43.2682 12.6965C42.6845 12.476 42.1859 12.2105 41.7701 11.8948C41.3542 11.5817 41.031 11.2109 40.7981 10.7875C40.5651 10.3641 40.4498 9.8731 40.4498 9.31944C40.4498 8.78082 40.5676 8.26976 40.8056 7.78375C41.0411 7.29773 41.3818 6.87185 41.8277 6.50609C42.2711 6.14032 42.8097 5.84721 43.4436 5.63177C44.0749 5.41632 44.7838 5.30859 45.5655 5.30859C46.3897 5.30859 47.1287 5.41632 47.7851 5.63177C48.4415 5.84721 48.9976 6.14534 49.4561 6.52362C49.912 6.90191 50.2602 7.35034 50.5007 7.86391C50.7412 8.37748 50.8615 8.93113 50.8615 9.52738H47.8878C47.8878 9.27435 47.8377 9.02884 47.74 8.78834C47.6423 8.54784 47.4945 8.33489 47.2991 8.147C47.1037 7.95911 46.8607 7.8113 46.5701 7.70107C46.2795 7.59084 45.9438 7.53573 45.5605 7.53573C45.1847 7.53573 44.859 7.58333 44.5809 7.67602C44.3028 7.76871 44.0724 7.89147 43.8895 8.04178C43.7066 8.1921 43.5688 8.36746 43.4786 8.56788C43.3884 8.7683 43.3433 8.97873 43.3433 9.19669C43.3433 9.41464 43.3834 9.61255 43.4661 9.78291C43.5488 9.95326 43.6916 10.1086 43.8995 10.2489C44.1074 10.3867 44.3855 10.5169 44.7362 10.6347C45.087 10.7524 45.5279 10.8702 46.0565 10.9829C46.8231 11.1457 47.5095 11.3386 48.1183 11.5566C48.7245 11.7771 49.2406 12.0451 49.659 12.3633C50.0799 12.6814 50.398 13.0572 50.6185 13.4881C50.8389 13.9215 50.9492 14.4351 50.9492 15.0288C50.9492 15.615 50.8239 16.1537 50.5709 16.6447C50.3179 17.1332 49.9571 17.5566 49.4886 17.9098C49.0202 18.2656 48.454 18.5386 47.7951 18.7365C47.1362 18.9345 46.3997 19.0297 45.593 19.0297C44.6886 19.0297 43.887 18.9019 43.1905 18.6439C42.4941 18.3858 41.9079 18.0501 41.4344 17.6343C40.9609 17.2184 40.6052 16.7474 40.3647 16.2213C40.1242 15.6952 40.0039 15.1591 40.0039 14.613H42.8899C42.915 15.0213 43.0077 15.3645 43.1705 15.6401C43.3333 15.9182 43.5413 16.1411 43.7943 16.314C44.0473 16.4844 44.3329 16.6096 44.6511 16.6873C44.9692 16.7649 45.2949 16.8025 45.6306 16.8025C46.4147 16.8025 47.0085 16.6547 47.4168 16.3566C47.8327 16.0635 48.0356 15.6752 48.0356 15.1917Z" fill="black"/>
<path d="M53.8047 2.11815C53.8047 1.66221 53.95 1.28141 54.2381 0.980788C54.5287 0.680162 54.9421 0.527344 55.4807 0.527344C56.0193 0.527344 56.4352 0.677657 56.7283 0.980788C57.0214 1.28141 57.1692 1.66221 57.1692 2.11815C57.1692 2.56659 57.0214 2.93986 56.7283 3.23799C56.4352 3.53611 56.0193 3.68391 55.4807 3.68391C54.9421 3.68391 54.5287 3.53611 54.2381 3.23799C53.9475 2.93986 53.8047 2.56659 53.8047 2.11815ZM56.9588 18.7904H53.9876V5.55531H56.9613V18.7904H56.9588Z" fill="black"/>
<path d="M59.9248 12.0727C59.9248 11.0706 60.0476 10.1512 60.2906 9.31944C60.5336 8.48771 60.8868 7.77372 61.3478 7.17999C61.8087 6.58375 62.3649 6.12279 63.0188 5.79711C63.6701 5.47143 64.4041 5.30859 65.2208 5.30859C66.02 5.30859 66.7089 5.44638 67.2876 5.71945C67.8663 5.99252 68.3649 6.38333 68.7808 6.88688L68.916 5.5541H71.5941V18.4234C71.5941 19.3127 71.4463 20.1044 71.1532 20.7958C70.8601 21.4898 70.4492 22.071 69.9231 22.5445C69.397 23.018 68.7657 23.3787 68.0267 23.6267C67.2876 23.8747 66.4785 24 65.5991 24C65.2334 24 64.825 23.9624 64.3766 23.8848C63.9281 23.8071 63.4747 23.6818 63.0188 23.5065C62.5628 23.3311 62.1269 23.1056 61.711 22.8276C61.2952 22.5495 60.9394 22.2113 60.6463 21.8129L62.0542 20.0267C62.5428 20.6054 63.0764 21.0213 63.6501 21.2743C64.2238 21.5274 64.8175 21.6526 65.4288 21.6526C66.4158 21.6526 67.195 21.3846 67.7661 20.8509C68.3373 20.3173 68.6229 19.5307 68.6229 18.496V17.6042C68.2071 18.0702 67.7185 18.4234 67.1549 18.6689C66.5912 18.9144 65.9398 19.0347 65.1983 19.0347C64.3916 19.0347 63.6626 18.8643 63.0137 18.5261C62.3649 18.1879 61.8112 17.7219 61.3503 17.1257C60.8893 16.5294 60.5361 15.823 60.2931 15.0038C60.0501 14.1846 59.9273 13.2927 59.9273 12.3307V12.0727H59.9248ZM62.886 12.3307C62.886 12.9169 62.9461 13.4706 63.0638 13.9892C63.1816 14.5077 63.367 14.9612 63.62 15.352C63.873 15.7428 64.1912 16.051 64.5745 16.2764C64.9578 16.5019 65.4188 16.6121 65.9574 16.6121C66.6263 16.6121 67.1724 16.4718 67.5958 16.1912C68.0192 15.9107 68.3624 15.5374 68.6229 15.0714V9.24679C68.3624 8.78082 68.0167 8.41506 67.5883 8.147C67.1599 7.87894 66.6238 7.74366 65.9799 7.74366C65.4413 7.74366 64.9778 7.8589 64.5845 8.08688C64.1937 8.31485 63.873 8.6255 63.625 9.01631C63.377 9.40712 63.1916 9.86558 63.0689 10.3917C62.9461 10.9178 62.886 11.4789 62.886 12.0727V12.3307Z" fill="black"/>
<path d="M77.6573 5.5541L77.7425 7.08229C78.2084 6.51861 78.7646 6.0827 79.4184 5.77456C80.0698 5.46392 80.7963 5.30859 81.5955 5.30859C82.2318 5.30859 82.808 5.39628 83.3266 5.57164C83.8452 5.74701 84.2861 6.0301 84.6544 6.42091C85.0226 6.81172 85.3057 7.32279 85.5036 7.94909C85.704 8.5779 85.8042 9.33948 85.8042 10.2364V18.7892H82.8306V10.2138C82.8306 9.75785 82.7804 9.37205 82.6777 9.0589C82.575 8.74575 82.4272 8.49022 82.2318 8.29481C82.0364 8.0994 81.7934 7.95911 81.5028 7.87393C81.2122 7.78876 80.8815 7.74617 80.5057 7.74617C79.8944 7.74617 79.3608 7.89398 78.9099 8.18709C78.459 8.4802 78.0957 8.87602 77.8276 9.37456V18.7892H74.8564V5.5541H77.6573Z" fill="black"/>
<path d="M89.2109 17.3072C89.2109 16.8337 89.3612 16.4404 89.6644 16.1272C89.965 15.8141 90.3909 15.6562 90.937 15.6562C91.4906 15.6562 91.919 15.8141 92.2222 16.1272C92.5228 16.4404 92.6756 16.8337 92.6756 17.3072C92.6756 17.7732 92.5253 18.1564 92.2222 18.4621C91.919 18.7677 91.4931 18.9205 90.937 18.9205C90.6689 18.9205 90.4259 18.8805 90.208 18.7978C89.9925 18.7151 89.8097 18.6024 89.6644 18.4546C89.5191 18.3068 89.4063 18.1364 89.3287 17.941C89.2485 17.7481 89.2109 17.5352 89.2109 17.3072Z" fill="black"/>
</svg>
