<svg width="39" height="39" viewBox="0 0 39 39" fill="none" xmlns="http://www.w3.org/2000/svg">
<circle cx="19.5" cy="19.5" r="19" fill="white" stroke="black"/>
<mask id="mask0" mask-type="alpha" maskUnits="userSpaceOnUse" x="0" y="0" width="39" height="39">
<circle cx="19.5" cy="19.5" r="19.5" fill="#C4C4C4"/>
</mask>
<g mask="url(#mask0)">
<path d="M14.9173 29.9353C10.8688 31.0408 11.1592 30.2553 10.8688 30.3038C8.66044 30.6722 6.20683 24.039 6.82023 20.3538C6.52579 13.8679 8.41512 10.0354 9.39658 8.92987C12.6354 3.91806 17.371 3.15646 19.3339 3.40214L23.3825 3.77065L28.1672 6.71877L31.1116 11.878C31.3569 13.8434 31.9213 17.8479 32.2157 18.1427C32.5838 18.5113 31.1572 26.6215 31.1115 26.9871C30.7435 29.9352 26.4496 30.6197 24.1187 30.6197L24.5472 30.9875C24.85 31.164 25.1572 31.35 25.0387 31.4093L26.3269 32.5148V33.6204L25.0387 31.4093L24.5472 30.9875C24.2227 30.7982 23.9032 30.6197 24.1187 30.6197L23.7506 30.3038L22.6464 30.6723V28.4612L24.4867 26.6187L26.5109 22.9335H28.1672C28.4125 22.6878 28.9769 22.1965 29.2713 22.1964C29.6394 22.1964 29.6394 21.0909 29.6394 20.7224C29.6394 20.4275 28.9033 19.3711 28.5352 18.8798H27.4311V17.7742C25.9589 17.1846 22.6464 16.3002 21.1742 15.9317C17.9354 14.4576 17.371 11.6323 17.4937 10.404C16.3159 9.22473 15.5308 10.404 15.2854 11.141L14.5493 14.8262L11.6049 17.0373V18.8798L10.1327 19.6169L9.39658 21.0909L10.1327 22.1965L11.2368 22.9335L12.341 23.302L14.5493 26.6187L16.0215 28.0927V31.0408L14.9173 29.9353Z" fill="#EEFC9A"/>
<path d="M27.4382 17.642L26.663 21.5232C26.0816 25.721 23.6862 28.5417 19.407 29.0793C15.8488 28.5417 12.5464 25.9125 12.1201 21.4201L11.3914 17.0823" stroke="#08090C" stroke-miterlimit="10" stroke-linecap="round" stroke-linejoin="round"/>
<path d="M10.7324 17.0895C10.7324 17.0895 15.2907 16.3015 14.81 11.2419" stroke="#08090C" stroke-miterlimit="10" stroke-linecap="round" stroke-linejoin="round"/>
<path d="M17.5387 10.0342C17.5387 10.0342 16.9418 14.232 20.9961 15.8081" stroke="#08090C" stroke-miterlimit="10" stroke-linecap="round" stroke-linejoin="round"/>
<path d="M22.3372 12.1328C22.3372 12.1328 22.3372 17.2881 28.252 17.5458" stroke="#08090C" stroke-miterlimit="10" stroke-linecap="round" stroke-linejoin="round"/>
<path d="M14.6934 4.08347C14.6934 4.08347 20.8873 0.931399 26.8487 5.83626C29.2751 8.02356 30.9693 10.6802 31.7034 15.4921C32.9918 23.9383 30.9693 31.0383 25.0969 31.0383" stroke="#08090C" stroke-miterlimit="10" stroke-linecap="round" stroke-linejoin="round"/>
<path d="M12.7703 5.40186C12.7703 5.40186 7.3361 8.20042 6.87872 17.3031C6.42135 26.4058 8.58036 29.9277 12.7703 31.0382" stroke="#08090C" stroke-miterlimit="10" stroke-linecap="round" stroke-linejoin="round"/>
<path d="M15.8486 19.5859V20.7348" stroke="#08090C" stroke-miterlimit="10" stroke-linecap="round" stroke-linejoin="round"/>
<path d="M11.7563 19.3946C11.3532 18.6508 10.0896 18.7318 9.67876 19.5861C9.26789 20.4404 9.32216 23.1138 11.671 23.1138" stroke="#08090C" stroke-miterlimit="10" stroke-linecap="round" stroke-linejoin="round"/>
<path d="M27.1348 19.3213C27.5379 18.5774 28.7705 18.7321 29.1891 19.5864C29.5999 20.4407 29.5457 23.114 27.1968 23.114" stroke="#08090C" stroke-miterlimit="10" stroke-linecap="round" stroke-linejoin="round"/>
<path d="M22.9644 19.5859V20.7348" stroke="#08090C" stroke-miterlimit="10" stroke-linecap="round" stroke-linejoin="round"/>
<path d="M17.9648 24.668L19.4067 25.7211L21.1122 24.668" stroke="#08090C" stroke-miterlimit="10" stroke-linecap="round" stroke-linejoin="round"/>
<path d="M19.5856 21.4858L20.3685 22.4506L19.5391 22.8041" stroke="#08090C" stroke-miterlimit="10" stroke-linecap="round" stroke-linejoin="round"/>
<path d="M16.9806 18.0249C16.9806 18.0249 16.5464 17.4062 15.717 17.4062C15.3681 17.4062 14.872 17.5609 14.4534 18.0249" stroke="#08090C" stroke-miterlimit="10" stroke-linecap="round" stroke-linejoin="round"/>
<path d="M21.6936 18.0249C21.6936 18.0249 22.1277 17.4062 22.9572 17.4062C23.306 17.4062 23.8022 17.5609 24.2208 18.0249" stroke="#08090C" stroke-miterlimit="10" stroke-linecap="round" stroke-linejoin="round"/>
<path d="M16.1588 28.4475C16.1588 28.4475 16.1588 29.897 16.1588 30.7292C16.1588 31.5614 15.7092 32.5924 13.6006 33.0932C11.3835 33.6161 10.9494 33.432 8.90283 34.0138C7.08109 34.5293 5.02679 35.9139 4.39111 38.9997" stroke="#08090C" stroke-miterlimit="10" stroke-linecap="round" stroke-linejoin="round"/>
<path d="M22.2915 28.5415C22.2915 28.5415 22.2915 29.8966 22.2915 30.7288C22.2915 31.561 22.7411 32.5921 24.8497 33.0929C27.0668 33.6157 27.5009 33.4316 29.5475 34.0134C31.3692 34.529 33.4235 35.9135 34.0592 38.9993" stroke="#08090C" stroke-miterlimit="10" stroke-linecap="round" stroke-linejoin="round"/>
<path d="M13.7193 30.6678C11.1501 29.9275 11.1501 26.9663 11.1501 26.9663" stroke="#08090C" stroke-miterlimit="10" stroke-linecap="round" stroke-linejoin="round"/>
<path d="M24.3624 30.6678C26.9317 29.9275 26.9316 26.9663 26.9316 26.9663" stroke="#08090C" stroke-miterlimit="10" stroke-linecap="round" stroke-linejoin="round"/>
<path d="M14.7631 29.9634L17.7322 32.6809L14.4763 35.7594L11.9956 32.5484L14.7631 29.9634Z" fill="white" stroke="#08090C" stroke-miterlimit="10" stroke-linecap="round" stroke-linejoin="round"/>
<path d="M23.5455 29.9634L20.5764 32.6809L23.8323 35.7594L26.313 32.5484L23.5455 29.9634Z" fill="white" stroke="#08090C" stroke-miterlimit="10" stroke-linecap="round" stroke-linejoin="round"/>
<path d="M17.7327 32.6804L19.1513 36.2891L20.5777 32.6804" fill="white"/>
<path d="M17.7327 32.6804L19.1513 36.2891L20.5777 32.6804" stroke="#08090C" stroke-miterlimit="10" stroke-linecap="round" stroke-linejoin="round"/>
</g>
</svg>
