<svg width="395" height="81" viewBox="0 0 395 81" fill="none" xmlns="http://www.w3.org/2000/svg">
<g filter="url(#filter0_b)">
<g opacity="0.5">
<path d="M6.67239 68.9874C8.43319 66.3721 11.868 65.7595 14.3442 67.6192C15.9002 68.7878 16.7074 70.6543 16.6557 72.5292" stroke="#E6E6E7" stroke-linecap="round" stroke-linejoin="round"/>
<path d="M20.8817 74.2794C19.7208 72.4452 17.3719 71.9522 15.6352 73.1783C15.2291 73.465 14.8925 73.8203 14.6298 74.2199" stroke="#E6E6E7" stroke-linecap="round" stroke-linejoin="round" stroke-dasharray="6 6"/>
<path d="M27.4331 72.1875C26.847 70.0698 24.7465 68.8549 22.7415 69.474C21.4571 69.8705 20.5234 70.9234 20.1723 72.1857" stroke="#E6E6E7" stroke-linecap="round" stroke-linejoin="round"/>
<path d="M26.3807 72.3613C25.9606 70.8433 24.4549 69.9724 23.0176 70.4161" stroke="#E6E6E7" stroke-linecap="round" stroke-linejoin="round"/>
<path d="M25.816 74.3111C26.723 72.3236 28.9837 71.489 30.8655 72.4469C32.0298 73.0396 32.7762 74.1797 32.9613 75.4336" stroke="#E6E6E7" stroke-linecap="round" stroke-linejoin="round"/>
<path d="M33.04 75.391C34.031 74.6888 35.2804 74.3966 36.5389 74.6841C38.1066 75.0422 39.3096 76.2135 39.8371 77.6885" stroke="#E6E6E7" stroke-linecap="round" stroke-linejoin="round"/>
</g>
<g opacity="0.5">
<path d="M249.106 68.5272C247.346 65.9119 243.911 65.2993 241.435 67.159C239.879 68.3276 239.071 70.1941 239.123 72.069" stroke="#E6E6E7" stroke-linecap="round" stroke-linejoin="round"/>
<path d="M234.897 73.8192C236.058 71.985 238.407 71.492 240.144 72.7181C240.55 73.0048 240.886 73.3601 241.149 73.7597" stroke="#E6E6E7" stroke-linecap="round" stroke-linejoin="round" stroke-dasharray="6 6"/>
<path d="M228.346 71.7273C228.932 69.6096 231.032 68.3947 233.037 69.0138C234.322 69.4103 235.255 70.4632 235.607 71.7255" stroke="#E6E6E7" stroke-linecap="round" stroke-linejoin="round"/>
<path d="M229.398 71.9011C229.818 70.3831 231.324 69.5122 232.761 69.9559" stroke="#E6E6E7" stroke-linecap="round" stroke-linejoin="round"/>
<path d="M229.963 73.8509C229.056 71.8634 226.795 71.0288 224.913 71.9867C223.749 72.5794 223.003 73.7195 222.818 74.9734" stroke="#E6E6E7" stroke-linecap="round" stroke-linejoin="round"/>
<path d="M222.739 74.9308C221.748 74.2286 220.498 73.9364 219.24 74.2239C217.672 74.582 216.469 75.7533 215.942 77.2283" stroke="#E6E6E7" stroke-linecap="round" stroke-linejoin="round"/>
</g>
<path fill-rule="evenodd" clip-rule="evenodd" d="M57.2749 39.6751H57.4363C60.8995 39.6751 63.7069 42.4825 63.7069 45.9457C63.7069 49.4089 60.8995 52.2163 57.4363 52.2163H37.4081C33.945 52.2163 31.1375 49.4089 31.1375 45.9457C31.1375 42.4825 33.945 39.6751 37.4081 39.6751H53.8988C53.9659 39.5269 54.0549 39.383 54.1678 39.2471C55.0934 38.1319 56.7652 38.5041 57.2749 39.6751Z" fill="#F4F4F4"/>
<rect x="35.0392" y="43.08" width="24.5967" height="0.716643" rx="0.358321" fill="white"/>
<rect x="35.0394" y="45.5888" width="24.5967" height="0.716643" rx="0.358321" fill="white"/>
<rect x="35.0394" y="48.0986" width="24.5967" height="0.716643" rx="0.358321" fill="white"/>
<path opacity="0.3" fill-rule="evenodd" clip-rule="evenodd" d="M30.7896 33.0656H33.0159C35.6875 33.0656 37.8532 30.8998 37.8532 28.2283C37.8532 25.5567 35.6875 23.3909 33.0159 23.3909H17.4153C14.7438 23.3909 12.578 25.5567 12.578 28.2283C12.578 30.8998 14.7438 33.0656 17.4153 33.0656H29.5205C29.9278 33.2742 30.4003 33.2565 30.7896 33.0656Z" fill="#E6E6E7"/>
<path opacity="0.15" d="M6.88129 59.9619H29.1031" stroke="#08090C" stroke-linecap="round" stroke-dasharray="8 8"/>
<path opacity="0.1" d="M1.11401 61.2146H23.5055" stroke="#08090C" stroke-linecap="round"/>
<path opacity="0.15" d="M268.596 51.6455H287.702" stroke="#08090C" stroke-linecap="round" stroke-dasharray="8 8"/>
<path opacity="0.1" d="M268.05 50.1775H273.614" stroke="#08090C" stroke-linecap="round"/>
<g opacity="0.5">
<rect opacity="0.5" x="237.129" y="25.811" width="18.2" height="26.5642" fill="#E6E6E7"/>
<path d="M240.668 29.9485H251.79" stroke="white" stroke-linecap="round"/>
<path d="M240.668 31.5962H251.79" stroke="white" stroke-linecap="round"/>
<path d="M240.668 33.3917H251.79" stroke="white" stroke-linecap="round"/>
<path d="M240.668 35.0375H251.79" stroke="white" stroke-linecap="round"/>
<path d="M240.668 36.5336H251.79" stroke="white" stroke-linecap="round"/>
<path d="M240.668 38.1794H251.79" stroke="white" stroke-linecap="round"/>
<path d="M240.668 39.976H251.79" stroke="white" stroke-linecap="round"/>
<path d="M240.668 41.6218H251.79" stroke="white" stroke-linecap="round"/>
<path d="M240.668 43.4172H251.79" stroke="white" stroke-linecap="round"/>
<path d="M244.081 45.0339H251.79" stroke="white" stroke-linecap="round"/>
<path d="M244.081 46.9022H251.79" stroke="white" stroke-linecap="round"/>
<path d="M244.081 48.5043H251.79" stroke="white" stroke-linecap="round"/>
<path d="M242.19 46.5013C242.19 47.2096 241.653 47.7366 241.047 47.7366C240.441 47.7366 239.904 47.2096 239.904 46.5013C239.904 45.7929 240.441 45.2659 241.047 45.2659C241.653 45.2659 242.19 45.7929 242.19 46.5013Z" fill="white" stroke="white"/>
<path fill-rule="evenodd" clip-rule="evenodd" d="M239.404 49.0536L240.289 47.4352L240.781 47.7355L240.781 47.7358L241.097 47.9286L241.412 47.7366L242.039 48.883L241.804 49.6554L241.096 48.3599L240.388 49.6544L240.154 48.8821L239.404 49.0536ZM242.789 49.0536L241.904 47.4352L241.412 47.7355L242.039 48.8819L242.789 49.0536Z" fill="white"/>
<ellipse cx="241.047" cy="46.5011" rx="1.01111" ry="1.06791" fill="#F2F2F3"/>
</g>
<g opacity="0.3">
<rect opacity="0.5" x="219.997" y="49.6392" width="9.11661" height="13.3063" fill="#E6E6E7"/>
<path d="M221.77 51.7131H227.341" stroke="white" stroke-linecap="round"/>
<path d="M221.77 52.5382H227.341" stroke="white" stroke-linecap="round"/>
<path d="M221.77 53.4376H227.341" stroke="white" stroke-linecap="round"/>
<path d="M221.77 54.262H227.341" stroke="white" stroke-linecap="round"/>
<path d="M221.77 55.0106H227.341" stroke="white" stroke-linecap="round"/>
<path d="M221.77 55.835H227.341" stroke="white" stroke-linecap="round"/>
<path d="M221.77 56.7343H227.341" stroke="white" stroke-linecap="round"/>
<path d="M221.77 57.5588H227.341" stroke="white" stroke-linecap="round"/>
<path d="M221.77 58.4602H227.341" stroke="white" stroke-linecap="round"/>
<path d="M223.478 59.269H227.34" stroke="white" stroke-linecap="round"/>
<path d="M223.478 60.2058H227.34" stroke="white" stroke-linecap="round"/>
<path d="M223.478 61.0074H227.34" stroke="white" stroke-linecap="round"/>
<mask id="path-51-inside-1" fill="white">
<ellipse cx="221.96" cy="60.0046" rx="0.823028" ry="0.869258"/>
</mask>
<ellipse cx="221.96" cy="60.0046" rx="0.823028" ry="0.869258" fill="white"/>
<path d="M221.783 60.0046C221.783 59.9862 221.79 59.9582 221.815 59.9317C221.841 59.9043 221.893 59.8738 221.96 59.8738V61.8738C223.017 61.8738 223.783 60.9847 223.783 60.0046H221.783ZM221.96 59.8738C222.027 59.8738 222.078 59.9043 222.104 59.9317C222.129 59.9582 222.137 59.9862 222.137 60.0046H220.137C220.137 60.9847 220.902 61.8738 221.96 61.8738V59.8738ZM222.137 60.0046C222.137 60.023 222.129 60.051 222.104 60.0774C222.078 60.1049 222.027 60.1353 221.96 60.1353V58.1353C220.902 58.1353 220.137 59.0244 220.137 60.0046H222.137ZM221.96 60.1353C221.893 60.1353 221.841 60.1049 221.815 60.0774C221.79 60.051 221.783 60.023 221.783 60.0046H223.783C223.783 59.0244 223.017 58.1353 221.96 58.1353V60.1353Z" fill="white" mask="url(#path-51-inside-1)"/>
<path fill-rule="evenodd" clip-rule="evenodd" d="M222.833 61.282L222.39 60.4713L222.143 60.6217L222.144 60.6224L221.985 60.7191L221.827 60.6224L221.524 61.1756L221.826 60.6232L221.579 60.4725L221.136 61.2836L221.512 61.1977L221.513 61.1966L221.63 61.5835L221.985 60.934L222.34 61.5835L222.458 61.1966L222.457 61.196L222.833 61.282Z" fill="white"/>
<ellipse cx="221.96" cy="60.004" rx="0.506479" ry="0.534928" fill="#F2F2F3"/>
</g>
<g opacity="0.2">
<path opacity="0.2" fill-rule="evenodd" clip-rule="evenodd" d="M145.357 10.399C145.569 10.9697 146.119 11.3763 146.763 11.3763C147.408 11.3763 147.957 10.9697 148.17 10.399C148.701 10.1681 149.072 9.6388 149.072 9.02275C149.072 8.40693 148.701 7.87779 148.17 7.64675C147.958 7.07517 147.408 6.66779 146.763 6.66779C146.118 6.66779 145.568 7.0752 145.356 7.64681C144.825 7.87788 144.454 8.40698 144.454 9.02275C144.454 9.63875 144.826 10.168 145.357 10.399Z" fill="#08090C"/>
<g opacity="0.4">
<mask id="path-56-inside-2" fill="white">
<ellipse cx="147.756" cy="21.291" rx="0.808832" ry="0.854265"/>
</mask>
<path d="M147.565 21.291C147.565 21.2685 147.574 21.2367 147.602 21.2076C147.63 21.1774 147.685 21.1453 147.756 21.1453V23.1453C148.806 23.1453 149.565 22.2629 149.565 21.291H147.565ZM147.756 21.1453C147.827 21.1453 147.881 21.1774 147.91 21.2076C147.938 21.2367 147.947 21.2685 147.947 21.291H145.947C145.947 22.2629 146.706 23.1453 147.756 23.1453V21.1453ZM147.947 21.291C147.947 21.3136 147.938 21.3453 147.91 21.3745C147.881 21.4046 147.827 21.4368 147.756 21.4368V19.4368C146.706 19.4368 145.947 20.3191 145.947 21.291H147.947ZM147.756 21.4368C147.685 21.4368 147.63 21.4046 147.602 21.3745C147.574 21.3453 147.565 21.3136 147.565 21.291H149.565C149.565 20.3191 148.806 19.4368 147.756 19.4368V21.4368Z" fill="#08090C" mask="url(#path-56-inside-2)"/>
</g>
<g opacity="0.15">
<mask id="path-58-inside-3" fill="white">
<ellipse cx="156.712" cy="1.591" rx="0.647066" ry="0.683412"/>
</mask>
<path d="M156.359 1.591C156.359 1.46835 156.466 1.27442 156.712 1.27442V3.27442C157.673 3.27442 158.359 2.46853 158.359 1.591H156.359ZM156.712 1.27442C156.958 1.27442 157.065 1.46835 157.065 1.591H155.065C155.065 2.46853 155.752 3.27442 156.712 3.27442V1.27442ZM157.065 1.591C157.065 1.71366 156.958 1.90759 156.712 1.90759V-0.0924072C155.752 -0.0924072 155.065 0.713477 155.065 1.591H157.065ZM156.712 1.90759C156.466 1.90759 156.359 1.71366 156.359 1.591H158.359C158.359 0.713477 157.673 -0.0924072 156.712 -0.0924072V1.90759Z" fill="#08090C" mask="url(#path-58-inside-3)"/>
</g>
<path opacity="0.3" fill-rule="evenodd" clip-rule="evenodd" d="M218.214 16.3789C218.002 16.9496 217.453 17.3562 216.808 17.3562C216.163 17.3562 215.614 16.9496 215.402 16.3789C214.871 16.148 214.499 15.6187 214.499 15.0027C214.499 14.3869 214.87 13.8577 215.401 13.6267C215.613 13.0551 216.163 12.6477 216.808 12.6477C217.453 12.6477 218.003 13.0551 218.215 13.6267C218.746 13.8578 219.117 14.3869 219.117 15.0027C219.117 15.6187 218.746 16.1479 218.214 16.3789Z" fill="#08090C"/>
<g opacity="0.4">
<mask id="path-61-inside-4" fill="white">
<ellipse rx="0.647066" ry="0.683412" transform="matrix(-1 0 0 1 229.183 30.9773)"/>
</mask>
<path d="M229.536 30.9773C229.536 30.8546 229.429 30.6607 229.183 30.6607V32.6607C228.223 32.6607 227.536 31.8548 227.536 30.9773H229.536ZM229.183 30.6607C228.938 30.6607 228.83 30.8546 228.83 30.9773H230.83C230.83 31.8548 230.144 32.6607 229.183 32.6607V30.6607ZM228.83 30.9773C228.83 31.0999 228.938 31.2939 229.183 31.2939V29.2939C230.144 29.2939 230.83 30.0998 230.83 30.9773H228.83ZM229.183 31.2939C229.429 31.2939 229.536 31.0999 229.536 30.9773H227.536C227.536 30.0998 228.223 29.2939 229.183 29.2939V31.2939Z" fill="#08090C" mask="url(#path-61-inside-4)"/>
</g>
<g opacity="0.15">
<mask id="path-63-inside-5" fill="white">
<ellipse rx="0.647066" ry="0.683412" transform="matrix(-1 0 0 1 227.242 5.00739)"/>
</mask>
<path d="M227.595 5.00739C227.595 4.88473 227.488 4.6908 227.242 4.6908V6.6908C226.282 6.6908 225.595 5.88491 225.595 5.00739H227.595ZM227.242 4.6908C226.996 4.6908 226.889 4.88473 226.889 5.00739H228.889C228.889 5.88491 228.203 6.6908 227.242 6.6908V4.6908ZM226.889 5.00739C226.889 5.13004 226.996 5.32397 227.242 5.32397V3.32397C228.203 3.32397 228.889 4.12986 228.889 5.00739H226.889ZM227.242 5.32397C227.488 5.32397 227.595 5.13004 227.595 5.00739H225.595C225.595 4.12986 226.282 3.32397 227.242 3.32397V5.32397Z" fill="#08090C" mask="url(#path-63-inside-5)"/>
</g>
<g opacity="0.4">
<mask id="path-65-inside-6" fill="white">
<ellipse rx="0.647066" ry="0.683412" transform="matrix(-1 0 0 1 197.476 22.2648)"/>
</mask>
<path d="M197.829 22.2648C197.829 22.1422 197.722 21.9482 197.476 21.9482V23.9482C196.516 23.9482 195.829 23.1424 195.829 22.2648H197.829ZM197.476 21.9482C197.231 21.9482 197.124 22.1422 197.124 22.2648H199.124C199.124 23.1424 198.437 23.9482 197.476 23.9482V21.9482ZM197.124 22.2648C197.124 22.3875 197.231 22.5814 197.476 22.5814V20.5814C198.437 20.5814 199.124 21.3873 199.124 22.2648H197.124ZM197.476 22.5814C197.722 22.5814 197.829 22.3875 197.829 22.2648H195.829C195.829 21.3873 196.516 20.5814 197.476 20.5814V22.5814Z" fill="#08090C" mask="url(#path-65-inside-6)"/>
</g>
<ellipse opacity="0.2" cx="187.124" cy="12.1839" rx="0.485299" ry="0.512559" fill="#08090C"/>
<ellipse opacity="0.3" cx="240.021" cy="18.3345" rx="0.485299" ry="0.512559" fill="#08090C"/>
</g>
<g opacity="0.8" filter="url(#filter1_b)">
<path d="M340.34 48.9659C340.34 48.6076 339.832 40.1871 339.832 39.7391L340.34 37.5892C341.075 36.1559 342.58 33.2356 342.715 33.0206C342.851 32.8056 345.995 33.8866 347.55 34.4539C349.557 35.1407 353.809 36.6218 354.759 37.0517C355.947 37.5892 356.455 44.3973 355.862 46.1889C355.387 47.6222 356.569 51.6235 357.219 53.4449C357.756 53.5644 358.932 53.8033 359.339 53.8033C359.848 53.8033 360.018 54.9678 360.527 55.2366C360.934 55.4515 361.375 57.1177 361.544 57.924L360.951 59.5364L358.491 64.0154L358.067 65.5383C358.067 67.5389 357.728 72.1852 357.728 72.6152C357.728 73.0451 357.926 75.6011 358.067 76.7358L358.491 80.0503H337.117C337.287 79.692 337.626 78.9216 337.626 78.7066V75.213L334.149 72.6152L331.604 74.4963H329.823L328.042 73.9589L327.024 73.1526L325.158 70.2861L323.377 65.5383L320.578 59.0885C321.426 58.1628 323.174 56.3115 323.377 56.3115C323.632 56.3115 328.551 58.0135 328.805 57.924C329.06 57.8344 329.738 57.6552 329.823 57.3865C329.891 57.1715 331.831 58.7302 332.792 59.5364L334.573 56.3115L337.117 53.0866L339.577 52.37L341.019 52.7283C340.793 51.5936 340.34 49.2526 340.34 48.9659Z" fill="white"/>
<path fill-rule="evenodd" clip-rule="evenodd" d="M344.963 30.1187C345.912 29.3956 348.575 28.7418 351.517 29.8518C353.935 30.7642 356.127 33.051 357.138 39.85C357.284 40.8296 357.192 42.2235 357.085 43.8436C356.914 46.4273 356.706 49.5864 357.363 52.5592C357.428 52.8542 357.49 53.1285 357.551 53.3873C357.127 53.3483 356.68 53.3381 356.227 53.3277C355.758 53.3171 355.283 53.3062 354.817 53.2634C354.581 53.2634 354.242 53.1701 353.903 53.0765C353.452 52.9523 353 52.8277 352.782 52.9196L351.803 51.2191C351.04 47.9946 351.651 44.6894 351.803 44.5281C351.956 44.3669 353.025 43.8832 353.33 43.8832C354.661 41.5407 354.097 40.8096 353.78 40.3982C353.716 40.3141 353.661 40.2434 353.635 40.175C353.483 39.7719 352.414 40.175 352.261 40.578C352.109 40.9811 351.04 42.2709 351.04 42.1097V41.1423C351.04 40.7554 350.073 40.3362 349.59 40.175C348.369 40.175 346.995 39.1538 346.46 38.6433C343.529 38.7723 342.797 35.7949 342.797 34.2901C342.415 34.2901 341.041 36.8698 340.812 37.3535C340.629 37.7404 340.889 40.5243 341.041 41.8679C341.395 46.6466 343.123 47.9674 343.68 48.3924C343.724 48.4263 343.761 48.4545 343.789 48.4782C344.094 48.7362 344.792 48.8007 345.428 48.8007C345.794 49.1876 345.58 51.1654 345.428 52.1059C345.342 52.1512 345.241 52.2117 345.128 52.2797C344.572 52.6152 343.711 53.134 342.797 52.9196C342.023 52.7379 341.695 52.6751 341.409 52.6351L340.862 51.9184C340.15 48.9978 339.652 42.1811 339.774 39.6034C339.927 36.3813 340.475 30.7366 344.963 30.1187ZM357.558 72.7487C358.451 72.865 359.439 72.6726 360.27 72.4387C360.905 70.7627 360.274 65.8548 359.618 62.3018C359.128 63.3355 358.633 64.285 358.385 64.5759C357.904 66.5873 357.567 69.5141 357.558 72.7487Z" fill="#EEFC9A"/>
<path d="M340.661 37.5128C341.034 39.0954 341.096 40.1505 341.096 41.9309C341.096 44.5741 341.719 46.6788 343.462 48.1954C344.271 48.8996 346.989 48.9211 349.313 47.0747C350.06 46.4812 351.429 45.1623 351.865 44.371C352.57 44.3271 353.988 43.4872 354.23 41.6014C354.417 40.1507 352.985 39.2275 352.238 40.7442" stroke="#08090C" stroke-linecap="round" stroke-linejoin="round"/>
<path d="M343.021 33.6729C342.52 35.0629 343.239 38.0895 345.439 38.6608" stroke="#08090C" stroke-linecap="round" stroke-linejoin="round"/>
<path d="M345.779 34.7722C345.558 36.0212 345.66 38.7371 347.836 39.6091" stroke="#08090C" stroke-linecap="round" stroke-linejoin="round"/>
<path d="M348.732 36.0194C348.502 37.193 348.512 39.7553 350.393 40.616" stroke="#08090C" stroke-linecap="round" stroke-linejoin="round"/>
<path d="M350.947 40.9541C351.203 41.2108 351.338 41.5906 351.168 42.2125C351.338 42.2057 351.489 42.2032 351.955 41.2302" stroke="#08090C" stroke-linecap="round" stroke-linejoin="round"/>
<path d="M342.333 34.4673C341.705 35.1292 341.078 36.3869 340.827 38.3064" stroke="#08090C" stroke-linecap="round" stroke-linejoin="round"/>
<path d="M344.019 41.5436L343.256 42.4573L343.765 43.1559" stroke="#08090C" stroke-linecap="round" stroke-linejoin="round"/>
<path d="M342.832 44.2994L342.832 44.2992L346.154 44.8586C346.152 46.1436 345.088 47.1515 343.96 46.7121C342.832 46.2728 342.832 44.9252 342.832 44.2994Z" fill="#08090C" stroke="#08090C" stroke-linecap="round" stroke-linejoin="round"/>
<path d="M343.561 38.9634C343.281 38.5984 342.554 38.0874 341.882 38.9634" stroke="#08090C" stroke-linecap="round" stroke-linejoin="round"/>
<path d="M346.462 39.3059C346.863 38.9416 347.884 38.5564 348.751 39.9305" stroke="#08090C" stroke-linecap="round" stroke-linejoin="round"/>
<path d="M344.802 30.2531C345.72 29.5537 348.296 28.7656 351.141 29.8393C353.48 30.722 355.945 32.5138 356.904 39.3512C357.682 44.8958 356.044 48.2647 357.473 53.2674" stroke="#08090C" stroke-linecap="round" stroke-linejoin="round"/>
<path d="M360.188 72.5264C361.036 70.2869 360.251 65.0983 359.594 63.1207" stroke="#08090C" stroke-linecap="round" stroke-linejoin="round"/>
<path d="M344.672 30.077C343.66 30.077 342.171 31.2019 341.204 32.9223C340.439 34.2836 339.853 36.8264 339.853 38.9438" stroke="#08090C" stroke-linecap="round" stroke-linejoin="round"/>
<path d="M339.856 39.7158C339.848 45.7801 340.333 47.8039 340.854 51.9967" stroke="#08090C" stroke-linecap="round" stroke-linejoin="round"/>
<path d="M343.331 48.0737C343.484 49.6054 343.866 50.734 344.171 51.782" stroke="#08090C" stroke-linecap="round" stroke-linejoin="round"/>
<path d="M342.034 46.5423C342.187 48.074 342.416 49.3638 342.721 50.4118" stroke="#08090C" stroke-linecap="round" stroke-linejoin="round"/>
<rect width="0.652035" height="1.3234" rx="0.326018" transform="matrix(0.996353 0.0853232 -0.0765437 0.997066 342.628 39.8759)" fill="#08090C"/>
<rect width="0.752348" height="1.45574" rx="0.376174" transform="matrix(0.996353 0.0853232 -0.0765437 0.997066 347.059 40.4249)" fill="#08090C"/>
<path d="M350.168 30.939C351.542 31.1808 354.534 33.0188 355.511 38.4361" stroke="#08090C" stroke-linecap="round" stroke-linejoin="round"/>
<path d="M354.391 45.7958C354.411 47.5475 354.605 51.53 355.221 53.4464" stroke="#08090C" stroke-linecap="round" stroke-linejoin="bevel"/>
<path d="M353.232 49.0469C353.339 50.0465 353.572 51.7721 353.901 53.4089" stroke="#08090C" stroke-linecap="round" stroke-linejoin="bevel"/>
<path d="M345.174 48.902C345.39 49.5015 345.689 51.2183 345.16 53.2901" stroke="#08090C" stroke-linecap="round" stroke-linejoin="round"/>
<path d="M355.692 53.6241C355.368 53.7348 353.705 53.6241 352.554 52.6387C351.232 51.5064 351.398 46.2957 351.876 44.3077" stroke="#08090C" stroke-linecap="round" stroke-linejoin="round"/>
<path d="M354.504 53.5351C353.422 54.3246 350.479 56.3505 345.164 55.7746C342.057 55.438 340.84 53.5519 340.943 52.7145C341.807 52.9657 344.418 53.2859 345.164 52.281" stroke="#08090C" stroke-linecap="round" stroke-linejoin="round"/>
<path d="M339.911 65.4427C340.059 64.3514 341.061 63.5793 342.151 63.7168C343.245 63.8546 344.013 64.8555 343.864 65.9503L343.539 68.3491C343.391 69.4404 342.388 70.2125 341.298 70.075C340.204 69.9372 339.437 68.9363 339.585 67.8415L339.911 65.4427Z" fill="white" stroke="#08090C" stroke-linecap="round" stroke-linejoin="round"/>
<path d="M348.737 69.9037C347.537 70.8636 344.568 73.65 343.179 72.8827C334.912 68.3159 336.895 64.2134 336.863 63.2994C336.839 62.607 341.357 66.8759 341.867 67.1513L343.179 68.2275L348.313 64.1952L348.737 69.9037Z" fill="white"/>
<path d="M352.13 59.4485C350.928 60.9305 350.108 62.367 347.431 64.7473C345.187 66.7433 345.7 66.0503 343.309 68.0482" stroke="#08090C" stroke-linecap="round" stroke-linejoin="round"/>
<path d="M353.657 57.8895C354.426 55.5491 355.415 54.7234 356.843 54.367" stroke="#08090C" stroke-linecap="round" stroke-linejoin="round"/>
<path d="M355.862 53.6031C356.791 53.6032 357.632 53.3682 358.905 53.7698C360.225 54.1863 361.282 55.8071 361.29 58.1033C361.29 61.5971 358.311 64.7324 356.964 66.9719" stroke="#08090C" stroke-linecap="round" stroke-linejoin="round"/>
<path d="M341.17 77.3126C337.024 75.5202 328.891 68.3165 325.243 63.3895C326.516 63.3895 329.871 59.0897 329.871 57.3681C333.47 60.0442 338.56 64.3991 341.843 67.1596C342.309 67.1635 343.564 67.8685 343.564 69.6601" stroke="#08090C" stroke-linecap="round" stroke-linejoin="round"/>
<path d="M343.308 67.8752C343.832 67.9276 344.904 68.5288 344.999 70.5137" stroke="#08090C" stroke-linecap="round" stroke-linejoin="bevel"/>
<path d="M342.546 77.6335C343.758 78.149 345.682 77.9736 348.907 75.3044C351.443 73.205 352.215 73.0649 356.286 67.6005" stroke="#08090C" stroke-linecap="round" stroke-linejoin="round"/>
<path d="M358.152 65.2707C357.485 68.4229 357.299 75.6446 358.576 79.9617" stroke="#08090C" stroke-linecap="round" stroke-linejoin="round"/>
<path d="M339.9 52.4827C337.457 52.4827 336.439 53.0882 333.725 57.9255C332.917 59.3645 332.961 59.2691 332.707 59.6275" stroke="#08090C" stroke-linecap="round" stroke-linejoin="round"/>
<path d="M322.105 57.9299C321.766 57.303 320.748 58.4675 320.663 58.9153C320.663 58.9153 320.748 59.2737 321.342 59.6321C321.935 59.9904 322.444 60.1694 322.444 60.1694C322.275 59.184 322.295 58.2819 322.105 57.9299Z" fill="#08090C" stroke="#08090C" stroke-linecap="round" stroke-linejoin="round"/>
<path d="M334.317 72.6187C332.027 74.1264 330.419 75.2021 327.979 73.8889C326.68 73.1904 325.157 70.6434 324.707 69.4185L320.668 58.912C321.105 59.4346 323.308 62.3218 326.63 58.9942" stroke="#08090C" stroke-linecap="round" stroke-linejoin="round"/>
<path d="M337.888 54.9452C338.527 55.446 338.578 57.0544 338.216 58.6195C337.854 60.1846 337.383 61.4412 337.059 62.8526" stroke="#08090C" stroke-linecap="round" stroke-linejoin="round"/>
<path d="M337.201 79.9571C337.499 79.3959 337.691 77.2705 337.623 75.3035" stroke="#08090C" stroke-linecap="round" stroke-linejoin="round"/>
<path d="M343.903 52.9069C343.217 55.0689 341.782 59.1195 341.783 63.4773" stroke="#08090C" stroke-linecap="round" stroke-linejoin="round"/>
<path d="M352.978 53.0878C349.586 55.0585 345.515 58.9105 342.292 63.5687" stroke="#08090C" stroke-linecap="round" stroke-linejoin="round"/>
<rect width="2.08819" height="14.5645" rx="1.04409" transform="matrix(0.998524 -0.0543197 0.0487096 0.998813 322.146 42.8672)" fill="#E6E6E7" stroke="#08090C"/>
<path d="M314.653 40.9581C314.718 42.2893 313.753 43.3768 312.557 43.4418C311.361 43.5069 310.296 42.5299 310.231 41.1987C310.166 39.8674 311.131 38.7799 312.327 38.7149C313.523 38.6498 314.589 39.6268 314.653 40.9581Z" fill="#08090C" stroke="#08090C"/>
<path fill-rule="evenodd" clip-rule="evenodd" d="M312.89 33.1129C313.809 34.3142 315.134 34.9123 316.303 35.2076C316.86 35.3485 317.395 35.6106 317.839 35.9671L317.815 35.4833L324.367 35.1269C327.255 34.9698 329.71 37.1841 329.851 40.0727C329.992 42.9613 327.765 45.4304 324.877 45.5875L318.325 45.9439L318.312 45.6658C317.947 45.9593 317.533 46.1993 317.104 46.3713C316.04 46.7981 314.88 47.5448 314.076 48.8514C312.881 50.7939 312.828 46.8499 312.947 43.7197C313.001 42.3124 313.937 41.1675 315.195 40.7404C313.973 40.5195 312.972 39.5913 312.727 38.3258C312.168 35.4247 311.55 31.3586 312.89 33.1129ZM317.283 40.6066C317.562 40.6299 317.828 40.6971 318.074 40.8012L318.044 40.1762C317.819 40.36 317.563 40.5068 317.283 40.6066Z" fill="white"/>
<path d="M318.121 35.3588L324.361 35.0193C327.248 34.8623 329.704 37.0766 329.845 39.9652C329.985 42.8538 327.759 45.3228 324.871 45.4799L318.632 45.8194L318.121 35.3588Z" fill="#EEFC9A"/>
<path d="M316.303 35.2076L316.178 35.6925L316.303 35.2076ZM312.89 33.1129L312.493 33.4181L312.89 33.1129ZM317.838 35.9666L317.524 36.3573L318.392 37.0544L318.337 35.9394L317.838 35.9666ZM317.814 35.4833L317.79 34.9839L317.291 35.0111L317.315 35.5105L317.814 35.4833ZM324.877 45.5875L324.852 45.0881L324.877 45.5875ZM318.325 45.9439L317.825 45.9711L317.85 46.4705L318.349 46.4433L318.325 45.9439ZM318.311 45.6662L318.81 45.6391L318.763 44.663L317.999 45.2771L318.311 45.6662ZM317.104 46.3713L316.92 45.9072L317.104 46.3713ZM314.076 48.8514L313.651 48.5909L313.651 48.5909L314.076 48.8514ZM312.947 43.7197L312.448 43.7034L312.947 43.7197ZM315.195 40.7404L315.353 41.2139L317.186 40.5915L315.286 40.2482L315.195 40.7404ZM312.727 38.3258L313.218 38.2284L312.727 38.3258ZM318.074 40.801L317.877 41.2619L318.612 41.5724L318.573 40.7738L318.074 40.801ZM317.283 40.6066L317.117 40.1357L317.239 41.105L317.283 40.6066ZM318.043 40.1766L318.543 40.1495L318.494 39.1633L317.728 39.7901L318.043 40.1766ZM316.427 34.7226C315.319 34.4424 314.113 33.8869 313.288 32.8077L312.493 33.4181C313.504 34.7415 314.949 35.3821 316.178 35.6925L316.427 34.7226ZM318.152 35.5759C317.651 35.1735 317.052 34.8803 316.427 34.7226L316.178 35.6925C316.668 35.8165 317.138 36.0473 317.524 36.3573L318.152 35.5759ZM317.315 35.5105L317.339 35.9938L318.337 35.9394L318.314 35.4562L317.315 35.5105ZM324.342 34.6275L317.79 34.9839L317.839 35.9827L324.391 35.6263L324.342 34.6275ZM330.35 40.0456C330.195 36.8812 327.506 34.4554 324.342 34.6275L324.391 35.6263C327.003 35.4842 329.224 37.4871 329.351 40.0999L330.35 40.0456ZM324.901 46.0869C328.064 45.9148 330.504 43.21 330.35 40.0456L329.351 40.0999C329.478 42.7127 327.464 44.946 324.852 45.0881L324.901 46.0869ZM318.349 46.4433L324.901 46.0869L324.852 45.0881L318.3 45.4445L318.349 46.4433ZM317.812 45.6934L317.825 45.9711L318.824 45.9167L318.81 45.6391L317.812 45.6934ZM317.288 46.8355C317.762 46.6454 318.219 46.3806 318.623 46.0554L317.999 45.2771C317.674 45.5386 317.304 45.7534 316.92 45.9072L317.288 46.8355ZM314.501 49.1118C315.233 47.922 316.293 47.2343 317.288 46.8355L316.92 45.9072C315.787 46.3618 314.526 47.1676 313.651 48.5909L314.501 49.1118ZM312.448 43.7034C312.388 45.2664 312.369 47.0739 312.523 48.2552C312.562 48.5526 312.613 48.8279 312.685 49.0575C312.75 49.2667 312.855 49.5223 313.054 49.6912C313.166 49.7865 313.316 49.8605 313.497 49.8672C313.672 49.8736 313.824 49.8146 313.942 49.7413C314.16 49.6052 314.342 49.3705 314.501 49.1118L313.651 48.5909C313.585 48.6971 313.53 48.7725 313.486 48.824C313.441 48.8772 313.417 48.8928 313.417 48.8927C313.419 48.8913 313.463 48.8648 313.539 48.8676C313.62 48.8705 313.677 48.9047 313.703 48.9273C313.731 48.9507 313.693 48.9292 313.64 48.7559C313.592 48.6029 313.549 48.3903 313.514 48.1205C313.373 47.0328 313.387 45.3032 313.447 43.7361L312.448 43.7034ZM315.036 40.2668C313.594 40.7567 312.51 42.075 312.448 43.7034L313.447 43.7361C313.492 42.5498 314.28 41.5783 315.353 41.2139L315.036 40.2668ZM312.237 38.4233C312.522 39.9003 313.689 40.977 315.103 41.2326L315.286 40.2482C314.256 40.062 313.422 39.2823 313.218 38.2284L312.237 38.4233ZM313.288 32.8077C313.114 32.5793 312.915 32.3653 312.687 32.26C312.561 32.2017 312.39 32.1603 312.202 32.2111C312.012 32.2624 311.885 32.3858 311.807 32.5002C311.67 32.7026 311.625 32.9672 311.604 33.1817C311.582 33.419 311.582 33.6993 311.597 34.0009C311.656 35.2005 311.957 36.9743 312.237 38.4233L313.218 38.2284C312.938 36.7762 312.65 35.0665 312.595 33.9463C312.582 33.668 312.583 33.441 312.6 33.2712C312.618 33.0785 312.649 33.036 312.634 33.0585C312.617 33.083 312.563 33.1484 312.457 33.1768C312.354 33.2047 312.28 33.1757 312.264 33.1684C312.257 33.1652 312.332 33.2079 312.493 33.4181L313.288 32.8077ZM318.27 40.3401C317.977 40.2159 317.659 40.1359 317.328 40.1082L317.239 41.105C317.464 41.1239 317.679 41.178 317.877 41.2619L318.27 40.3401ZM317.544 40.2038L317.574 40.8281L318.573 40.7738L318.543 40.1495L317.544 40.2038ZM317.449 41.0775C317.784 40.958 318.09 40.7825 318.358 40.5631L317.728 39.7901C317.548 39.9379 317.342 40.0556 317.117 40.1357L317.449 41.0775Z" fill="#08090C"/>
<rect width="1.67055" height="17.6388" rx="0.835276" transform="matrix(0.998524 -0.0543197 0.0487096 0.998813 311.595 32.2907)" fill="white" stroke="#08090C"/>
<path d="M321.726 56.7694C321.862 57.4144 322.235 58.5909 322.404 59.0985C327.493 60.0301 326.673 54.6493 325.627 51.8425C324.27 50.9467 322.998 50.4987 322.15 50.4092C321.471 50.3375 321.584 50.9168 321.726 51.2154C320.979 51.2154 320.963 52.0515 321.047 52.4695C320.504 52.8995 320.821 53.9028 321.047 54.3507C320.776 55.0673 321.387 56.2617 321.726 56.7694Z" fill="white"/>
<path d="M322.444 60.0778C322.444 59.0028 321.862 57.4144 321.726 56.7694C321.387 56.2617 320.776 55.0673 321.047 54.3507C320.821 53.9028 320.504 52.8995 321.047 52.4695C320.963 52.0515 320.979 51.2154 321.726 51.2154C321.584 50.9168 321.471 50.3375 322.15 50.4092C322.998 50.4987 324.27 50.9467 325.627 51.8425C326.038 52.108 326.613 52.7285 325.627 53.0868" stroke="#08090C" stroke-linecap="round" stroke-linejoin="round"/>
<path d="M323.123 50.7438C323.926 50.9179 325.402 52.8652 326.201 53.7448C326.829 54.9194 328.57 57.8215 329.23 58.2838L326.939 61.9566C326.201 60.7025 325.266 60.0195 324.33 59.6872C323.393 59.3549 321.807 58.3344 321.386 57.8657C320.671 57.4006 320.825 56.7026 320.991 56.4117C320.147 55.51 320.684 55.0218 321.057 54.8905C320.616 54.5104 320.334 53.9587 320.947 53.5151C321.438 53.1602 323.187 53.4411 323.745 53.6259C323.683 53.3348 323.276 52.5812 322.154 51.8959C320.751 51.0392 319.526 50.5994 320.093 50.0034C320.66 49.4074 322.119 50.5261 323.123 50.7438Z" fill="white"/>
<path d="M329.339 58.3395C328.68 57.8771 327.519 55.2386 326.122 53.7002C325.323 52.8206 323.847 50.8733 323.044 50.6992C322.04 50.4815 320.581 49.3629 320.014 49.9588C319.447 50.5548 320.672 50.9946 322.075 51.8513C323.197 52.5366 323.604 53.2902 323.666 53.5813C323.108 53.3965 321.359 53.1156 320.868 53.4705C320.255 53.9141 320.537 54.4658 320.978 54.8459C320.605 54.9772 320.134 55.5015 320.978 56.4033C320.305 56.9769 320.627 57.4609 321.342 57.926C321.763 58.3947 322.245 58.4779 323.044 59.0906C324.565 60.2551 325.528 60.3448 326.122 60.7031C326.716 61.0614 327.194 61.9572 327.194 61.9572" stroke="#08090C" stroke-linecap="round" stroke-linejoin="round"/>
<path d="M325.243 63.3896C325.108 62.9596 325.781 61.3291 326.176 60.9708L327.025 62.0457L325.243 63.3896Z" fill="#08090C"/>
<path d="M329.06 57.9252L329.824 57.2982L329.484 58.4627L329.06 57.9252Z" fill="#08090C"/>
<path d="M325.243 63.3896C325.108 62.9596 325.781 61.3291 326.176 60.9708L327.025 62.0457L325.243 63.3896Z" stroke="#08090C" stroke-linecap="round" stroke-linejoin="round"/>
<path d="M329.06 57.9252L329.824 57.2982L329.484 58.4627L329.06 57.9252Z" stroke="#08090C" stroke-linecap="round" stroke-linejoin="round"/>
<path d="M304.293 40.9098H307.346" stroke="#08090C" stroke-linecap="round" stroke-linejoin="round"/>
<path d="M305.166 36.4288L307.372 38.7578" stroke="#08090C" stroke-linecap="round" stroke-linejoin="round"/>
<path d="M305.166 45.3295L307.372 43.0005" stroke="#08090C" stroke-linecap="round" stroke-linejoin="round"/>
<path d="M323.462 53.5345C324.225 53.8929 324.395 53.8929 324.734 54.1616" stroke="#08090C" stroke-linecap="round" stroke-linejoin="round"/>
<path d="M320.917 54.8203C321.095 54.8443 321.77 54.4955 323.632 55.6863" stroke="#08090C" stroke-linecap="round" stroke-linejoin="round"/>
<path d="M321.002 56.4019C321.134 56.4339 322.673 56.7131 322.953 56.9394" stroke="#08090C" stroke-linecap="round" stroke-linejoin="round"/>
</g>
</g>
<defs>
<filter id="filter0_b" x="-3.38599" y="-3.09241" width="369.176" height="87.5552" filterUnits="userSpaceOnUse" color-interpolation-filters="sRGB">
<feFlood flood-opacity="0" result="BackgroundImageFix"/>
<feGaussianBlur in="BackgroundImage" stdDeviation="2"/>
<feComposite in2="SourceAlpha" operator="in" result="effect1_backgroundBlur"/>
<feBlend mode="normal" in="SourceGraphic" in2="effect1_backgroundBlur" result="shape"/>
</filter>
<filter id="filter1_b" x="299.793" y="24.8124" width="65.9969" height="59.6504" filterUnits="userSpaceOnUse" color-interpolation-filters="sRGB">
<feFlood flood-opacity="0" result="BackgroundImageFix"/>
<feGaussianBlur in="BackgroundImage" stdDeviation="2"/>
<feComposite in2="SourceAlpha" operator="in" result="effect1_backgroundBlur"/>
<feBlend mode="normal" in="SourceGraphic" in2="effect1_backgroundBlur" result="shape"/>
</filter>
</defs>
</svg>
