<svg width="50" height="31" viewBox="0 0 50 31" fill="none" xmlns="http://www.w3.org/2000/svg">
<path d="M48.3285 24.8651L40.768 22.7999L42.0348 19.8033L48.3285 24.8651Z" fill="#CAD489" stroke="#08090C" stroke-width="2" stroke-linecap="round" stroke-linejoin="round"/>
<rect x="23.042" y="1.15735" width="16.0626" height="18.9146" rx="3" transform="rotate(9.92215 23.042 1.15735)" fill="white" stroke="#08090C" stroke-width="2"/>
<rect x="24.5307" y="5.22808" width="11.408" height="0.633776" rx="0.316888" transform="rotate(9.92215 24.5307 5.22808)" fill="white" stroke="#08090C" stroke-width="0.633776"/>
<rect x="24.0395" y="8.03765" width="11.408" height="0.633776" rx="0.316888" transform="rotate(9.92215 24.0395 8.03765)" fill="white" stroke="#08090C" stroke-width="0.633776"/>
<rect x="23.5483" y="10.847" width="8.23909" height="0.633776" rx="0.316888" transform="rotate(9.92215 23.5483 10.847)" fill="white" stroke="#08090C" stroke-width="0.633776"/>
<path d="M28.7541 14.8216C31.5379 16.2815 34.8039 15.1299 34.3719 14.2669C34.0384 13.6006 33.2672 13.9057 32.5197 14.4094C31.5375 15.0714 30.8476 16.987 28.9024 17.9229C27.9529 18.3798 26.9952 18.5141 27.044 17.744C27.1049 16.7848 31.2675 15.9156 32.7409 17.3769C33.7898 18.4173 31.1378 19.4135 30.8428 18.6222C30.5388 17.8067 33.8757 17.5075 34.6896 18.3989" stroke="#08090C" stroke-width="1.5" stroke-linecap="round" stroke-linejoin="round"/>
<path d="M2.60522 7.45972L42.0353 19.8033L38.1927 29.0333L2.60522 7.45972Z" fill="#A3AD67" stroke="#08090C" stroke-width="2" stroke-linecap="round" stroke-linejoin="round"/>
<path d="M37.6471 28.5757L33.1427 20.3611L27.7084 23.1238L37.6471 28.5757Z" fill="#CAD489" stroke="#08090C" stroke-width="2" stroke-linecap="round" stroke-linejoin="round"/>
<path d="M2.89624 7.5564L35.3202 18.7662L23.5748 25.6377L2.89624 7.5564Z" fill="#EEFC9A" stroke="#08090C" stroke-width="2" stroke-linecap="round" stroke-linejoin="round"/>
</svg>
