<svg width="37" height="41" viewBox="0 0 37 41" fill="none" xmlns="http://www.w3.org/2000/svg">
<path d="M15.4334 2.607C17.1856 0.849312 19.0838 2.607 19.8139 3.70556H20.544L22.0041 2.97312C22.6125 3.09518 23.9024 3.3393 24.1944 3.3393C24.4864 3.3393 25.0462 4.55992 25.2895 5.17023L27.1147 8.09971L27.8448 9.56446C27.9665 9.80858 28.2099 10.4433 28.2099 11.0292V13.5925C28.2099 13.7654 27.5587 16.2196 26.9098 17.2544C26.3929 18.0785 25.8775 18.1878 25.6936 18.2525C25.7756 18.4279 25.7847 18.4834 25.6546 18.3529C25.5992 18.2974 25.6194 18.2785 25.6936 18.2525C25.5455 17.9359 25.1594 17.2289 24.9245 16.522C24.809 16.1746 22.3692 11.7616 22.3692 11.0292C22.3692 10.2968 21.274 9.56446 20.909 9.56446C20.617 9.56446 20.1789 9.56446 19.8139 9.93064C19.5705 9.68652 19.0108 9.85741 18.7188 9.56446C18.3537 9.19827 17.6236 9.19827 17.2586 9.19827C16.9666 9.19827 14.825 11.2733 13.9732 12.1278C12.8781 14.3249 11.4179 14.3249 10.6878 14.6911C9.70832 15.1823 9.5927 17.6205 8.86262 17.2544C8.13253 17.6205 7.26927 16.1353 6.6953 15.0572C6.02672 13.8015 6.09942 11.8683 5.94228 11.3954C5.65025 10.5165 6.55068 9.56446 7.03741 9.19827L6.30732 8.09971C6.67237 8.58796 7.62147 8.97856 8.49758 6.63497C9.5927 3.70549 11.4179 3.70556 11.783 2.97312C12.075 2.38716 14.3383 2.48489 15.4334 2.607Z" fill="#EEFC9A"/>
<path d="M25.9411 17.5215L25.213 21.1619C24.7379 25.1597 22.4015 27.1712 17.5682 28.4427C12.9365 27.1712 11.0155 25.1663 10.2874 21.1619L9.55933 17.8855" stroke="#08090C" stroke-miterlimit="10" stroke-linecap="round" stroke-linejoin="round"/>
<path d="M19.3195 10.2859C18.8659 9.50222 18.6564 9.238 17.9325 9.14858C16.8467 9.01445 16.0497 10.0786 16.0497 10.0786C14.4263 12.1493 13.0031 14.8857 9.37002 14.6552" stroke="#08090C" stroke-miterlimit="10" stroke-linecap="round" stroke-linejoin="round"/>
<path d="M17.8596 10.6125C17.5835 9.84174 17.2097 9.57621 16.4759 9.51261" stroke="#08090C" stroke-miterlimit="10" stroke-linecap="round" stroke-linejoin="round"/>
<path d="M20.8442 10.5698C21.2083 10.2058 21.5723 9.84179 21.9364 10.2058" stroke="#08090C" stroke-miterlimit="10" stroke-linecap="round" stroke-linejoin="round"/>
<path d="M19.0244 6.23635C17.498 4.37133 15.8242 5.29463 14.954 6.23635M11.3796 8.78464C12.4717 9.14874 13.1478 8.53884 13.8543 7.69254" stroke="#08090C" stroke-miterlimit="10" stroke-linecap="round" stroke-linejoin="round"/>
<path d="M19.3889 10.2405C19.7393 9.92424 20.3354 9.22122 21.2091 9.51245C22.0828 9.80369 22.5428 11.0156 23.0293 12.4248C23.5157 13.8341 24.4975 14.9308 25.9416 14.9731" stroke="#08090C" stroke-miterlimit="10" stroke-linecap="round" stroke-linejoin="round"/>
<path d="M9.55885 17.8857C10.3355 17.6268 10.5599 16.2633 10.8865 14.9734" stroke="#08090C" stroke-miterlimit="10" stroke-linecap="round" stroke-linejoin="round"/>
<path d="M23.7569 13.881C24.485 15.3371 24.849 17.1573 25.9411 17.8854" stroke="#08090C" stroke-miterlimit="10" stroke-linecap="round" stroke-linejoin="round"/>
<path d="M13.9785 17.8853V19.1303" stroke="#08090C" stroke-miterlimit="10" stroke-linecap="round" stroke-linejoin="round"/>
<path d="M9.55874 17.6824C9.17141 16.9137 7.95725 16.9974 7.56246 17.8803C7.16767 18.7631 7.21982 21.5259 9.47681 21.5259" stroke="#08090C" stroke-miterlimit="10" stroke-linecap="round" stroke-linejoin="round"/>
<path d="M26.0138 17.6921C26.4502 16.8867 27.6719 16.9604 28.1252 17.8854C28.5701 18.8104 28.1202 21.5257 25.5769 21.5257" stroke="#08090C" stroke-miterlimit="10" stroke-linecap="round" stroke-linejoin="round"/>
<path d="M21.6833 17.8853V19.1303" stroke="#08090C" stroke-miterlimit="10" stroke-linecap="round" stroke-linejoin="round"/>
<path d="M16.1113 23.7102L17.9315 25.1664L19.7517 23.7102" fill="#08090C"/>
<path d="M16.1113 23.7102L17.9315 25.1664L19.7517 23.7102H16.1113Z" stroke="#08090C" stroke-miterlimit="10" stroke-linecap="round" stroke-linejoin="round"/>
<path d="M18.0255 20.4336L18.8732 21.4782L17.9751 21.861" stroke="#08090C" stroke-miterlimit="10" stroke-linecap="round" stroke-linejoin="round"/>
<path d="M15.2042 16.2885C15.2042 16.2885 14.7341 15.6187 13.836 15.6187C13.4582 15.6187 12.921 15.7861 12.4678 16.2885" stroke="#08090C" stroke-miterlimit="10" stroke-linecap="round" stroke-linejoin="round"/>
<path d="M20.3071 16.2885C20.3071 16.2885 20.7772 15.6187 21.6753 15.6187C22.053 15.6187 22.5903 15.7861 23.0435 16.2885" stroke="#08090C" stroke-miterlimit="10" stroke-linecap="round" stroke-linejoin="round"/>
<path d="M14.3139 27.3506C14.3139 27.3506 14.3139 28.4154 14.3139 29.3165C14.3139 30.2176 13.8271 32.0621 11.5439 32.6043C9.14331 33.1705 7.94518 33.6992 5.72921 34.3292C3.75666 34.8874 1.53229 36.3866 0.843994 39.7278" stroke="#08090C" stroke-miterlimit="10" stroke-linecap="round" stroke-linejoin="round"/>
<path d="M20.9546 27.3506C20.9546 27.3506 20.9546 28.4151 20.9546 29.3162C20.9546 30.2173 21.4414 32.0617 23.7246 32.604C26.1252 33.1702 28.7795 34.427 30.9955 35.0569C32.968 35.6151 35.1924 37.1143 35.8807 40.4556" stroke="#08090C" stroke-miterlimit="10" stroke-linecap="round" stroke-linejoin="round"/>
<path d="M15.7481 2.23179C17.2043 1.0444 19.3885 2.23178 19.8111 3.39587" stroke="#08090C" stroke-miterlimit="10" stroke-linecap="round" stroke-linejoin="round"/>
<path d="M14.2918 2.95992C13.1997 2.23196 9.99613 3.4695 8.83121 6.96428C8.70986 7.69237 8.10313 8.93013 6.64697 8.05643" stroke="#08090C" stroke-linecap="round" stroke-linejoin="round"/>
<path d="M7.01154 9.51245C5.91943 10.9686 5.91944 13.1528 8.10367 17.1573" stroke="#08090C" stroke-linecap="round" stroke-linejoin="round"/>
<path d="M28.1248 9.87671C29.2169 11.3329 28.8528 13.8811 27.3967 17.1575" stroke="#08090C" stroke-linecap="round" stroke-linejoin="round"/>
<path d="M28.4891 8.42048C25.9409 8.42047 26.6855 4.94987 24.8488 3.68794C23.7891 2.95999 22.3005 2.59592 21.2084 3.68796" stroke="#08090C" stroke-miterlimit="10" stroke-linecap="round" stroke-linejoin="round"/>
<path d="M14.2583 29.2153L17.4732 32.1579L13.9477 35.4911L11.2617 32.0143L14.2583 29.2153Z" fill="white" stroke="#08090C" stroke-miterlimit="10" stroke-linecap="round" stroke-linejoin="round"/>
<path d="M20.856 29.2153L17.6411 32.1579L21.1665 35.4911L23.8526 32.0143L20.856 29.2153Z" fill="white" stroke="#08090C" stroke-miterlimit="10" stroke-linecap="round" stroke-linejoin="round"/>
<path d="M17.0224 32.5234L16.5128 32.4468L15.7483 33.7113L15.7847 34.0562L16.804 35.474L15.8211 39.7276H19.5707L18.333 35.474L19.3523 34.0562L19.3887 33.7113L18.6242 32.4468L18.1145 32.5234H17.0224Z" fill="#08090C"/>
</svg>
