<svg width="39" height="39" viewBox="0 0 39 39" fill="none" xmlns="http://www.w3.org/2000/svg">
<circle cx="19.5" cy="19.5" r="19" fill="white" stroke="black"/>
<mask id="mask0" mask-type="alpha" maskUnits="userSpaceOnUse" x="1" y="0" width="38" height="38">
<circle cx="20.15" cy="18.9708" r="18.85" fill="#C4C4C4"/>
</mask>
<g mask="url(#mask0)">
<path d="M17.4334 3.607C19.1856 1.84931 21.0838 3.607 21.8139 4.70556H22.544L24.0041 3.97312C24.6125 4.09518 25.9024 4.3393 26.1944 4.3393C26.4864 4.3393 27.0462 5.55992 27.2895 6.17023L29.1147 9.09971L29.8448 10.5645C29.9665 10.8086 30.2099 11.4433 30.2099 12.0292V14.5925C30.2099 14.7654 29.5587 17.2196 28.9098 18.2544C28.3929 19.0785 27.8775 19.1878 27.6936 19.2525C27.7756 19.4279 27.7847 19.4834 27.6546 19.3529C27.5992 19.2974 27.6194 19.2785 27.6936 19.2525C27.5455 18.9359 27.1594 18.2289 26.9245 17.522C26.809 17.1746 24.3692 12.7616 24.3692 12.0292C24.3692 11.2968 23.274 10.5645 22.909 10.5645C22.617 10.5645 22.1789 10.5645 21.8139 10.9306C21.5705 10.6865 21.0108 10.8574 20.7188 10.5645C20.3537 10.1983 19.6236 10.1983 19.2586 10.1983C18.9666 10.1983 16.825 12.2733 15.9732 13.1278C14.8781 15.3249 13.4179 15.3249 12.6878 15.6911C11.7083 16.1823 11.5927 18.6205 10.8626 18.2544C10.1325 18.6205 9.26927 17.1353 8.6953 16.0572C8.02672 14.8015 8.09942 12.8683 7.94228 12.3954C7.65025 11.5165 8.55068 10.5645 9.03741 10.1983L8.30732 9.09971C8.67237 9.58796 9.62147 9.97856 10.4976 7.63497C11.5927 4.70549 13.4179 4.70556 13.783 3.97312C14.075 3.38716 16.3383 3.48489 17.4334 3.607Z" fill="#EEFC9A"/>
<path d="M27.9411 18.5215L27.213 22.1619C26.7379 26.1597 24.4015 28.1712 19.5682 29.4427C14.9365 28.1712 13.0155 26.1663 12.2874 22.1619L11.5593 18.8855" stroke="#08090C" stroke-miterlimit="10" stroke-linecap="round" stroke-linejoin="round"/>
<path d="M21.3195 11.2859C20.8659 10.5022 20.6564 10.238 19.9325 10.1486C18.8467 10.0144 18.0497 11.0786 18.0497 11.0786C16.4263 13.1493 15.0031 15.8857 11.37 15.6552" stroke="#08090C" stroke-miterlimit="10" stroke-linecap="round" stroke-linejoin="round"/>
<path d="M19.8596 11.6125C19.5835 10.8417 19.2097 10.5762 18.4759 10.5126" stroke="#08090C" stroke-miterlimit="10" stroke-linecap="round" stroke-linejoin="round"/>
<path d="M22.8442 11.5698C23.2083 11.2058 23.5723 10.8418 23.9364 11.2058" stroke="#08090C" stroke-miterlimit="10" stroke-linecap="round" stroke-linejoin="round"/>
<path d="M21.0244 7.23635C19.498 5.37133 17.8242 6.29463 16.954 7.23635M13.3796 9.78464C14.4717 10.1487 15.1478 9.53884 15.8543 8.69254" stroke="#08090C" stroke-miterlimit="10" stroke-linecap="round" stroke-linejoin="round"/>
<path d="M21.3889 11.2405C21.7393 10.9242 22.3354 10.2212 23.2091 10.5125C24.0828 10.8037 24.5428 12.0156 25.0293 13.4248C25.5157 14.8341 26.4975 15.9308 27.9416 15.9731" stroke="#08090C" stroke-miterlimit="10" stroke-linecap="round" stroke-linejoin="round"/>
<path d="M11.5589 18.8857C12.3355 18.6268 12.5599 17.2633 12.8865 15.9734" stroke="#08090C" stroke-miterlimit="10" stroke-linecap="round" stroke-linejoin="round"/>
<path d="M25.7569 14.881C26.485 16.3371 26.849 18.1573 27.9411 18.8854" stroke="#08090C" stroke-miterlimit="10" stroke-linecap="round" stroke-linejoin="round"/>
<path d="M15.9785 18.8853V20.1303" stroke="#08090C" stroke-miterlimit="10" stroke-linecap="round" stroke-linejoin="round"/>
<path d="M11.5587 18.6824C11.1714 17.9137 9.95725 17.9974 9.56246 18.8803C9.16767 19.7631 9.21982 22.5259 11.4768 22.5259" stroke="#08090C" stroke-miterlimit="10" stroke-linecap="round" stroke-linejoin="round"/>
<path d="M28.0138 18.6921C28.4502 17.8867 29.6719 17.9604 30.1252 18.8854C30.5701 19.8104 30.1202 22.5257 27.5769 22.5257" stroke="#08090C" stroke-miterlimit="10" stroke-linecap="round" stroke-linejoin="round"/>
<path d="M23.6833 18.8853V20.1303" stroke="#08090C" stroke-miterlimit="10" stroke-linecap="round" stroke-linejoin="round"/>
<path d="M18.1113 24.7102L19.9315 26.1664L21.7517 24.7102" fill="#08090C"/>
<path d="M18.1113 24.7102L19.9315 26.1664L21.7517 24.7102H18.1113Z" stroke="#08090C" stroke-miterlimit="10" stroke-linecap="round" stroke-linejoin="round"/>
<path d="M20.0255 21.4336L20.8732 22.4782L19.9751 22.861" stroke="#08090C" stroke-miterlimit="10" stroke-linecap="round" stroke-linejoin="round"/>
<path d="M17.2042 17.2885C17.2042 17.2885 16.7341 16.6187 15.836 16.6187C15.4582 16.6187 14.921 16.7861 14.4678 17.2885" stroke="#08090C" stroke-miterlimit="10" stroke-linecap="round" stroke-linejoin="round"/>
<path d="M22.3071 17.2885C22.3071 17.2885 22.7772 16.6187 23.6753 16.6187C24.053 16.6187 24.5903 16.7861 25.0435 17.2885" stroke="#08090C" stroke-miterlimit="10" stroke-linecap="round" stroke-linejoin="round"/>
<path d="M16.3139 28.3506C16.3139 28.3506 16.3139 29.4154 16.3139 30.3165C16.3139 31.2176 15.8271 33.0621 13.5439 33.6043C11.1433 34.1705 9.94518 34.6992 7.72921 35.3292C5.75666 35.8874 3.53229 37.3866 2.84399 40.7278" stroke="#08090C" stroke-miterlimit="10" stroke-linecap="round" stroke-linejoin="round"/>
<path d="M22.9546 28.3506C22.9546 28.3506 22.9546 29.4151 22.9546 30.3162C22.9546 31.2173 23.4414 33.0617 25.7246 33.604C28.1252 34.1702 30.7795 35.427 32.9955 36.0569C34.968 36.6151 37.1924 38.1143 37.8807 41.4556" stroke="#08090C" stroke-miterlimit="10" stroke-linecap="round" stroke-linejoin="round"/>
<path d="M17.7481 3.23179C19.2043 2.0444 21.3885 3.23178 21.8111 4.39587" stroke="#08090C" stroke-miterlimit="10" stroke-linecap="round" stroke-linejoin="round"/>
<path d="M16.2918 3.95992C15.1997 3.23196 11.9961 4.4695 10.8312 7.96428C10.7099 8.69237 10.1031 9.93013 8.64697 9.05643" stroke="#08090C" stroke-linecap="round" stroke-linejoin="round"/>
<path d="M9.01154 10.5125C7.91943 11.9686 7.91944 14.1528 10.1037 18.1573" stroke="#08090C" stroke-linecap="round" stroke-linejoin="round"/>
<path d="M30.1248 10.8767C31.2169 12.3329 30.8528 14.8811 29.3967 18.1575" stroke="#08090C" stroke-linecap="round" stroke-linejoin="round"/>
<path d="M30.4891 9.42048C27.9409 9.42047 28.6855 5.94987 26.8488 4.68794C25.7891 3.95999 24.3005 3.59592 23.2084 4.68796" stroke="#08090C" stroke-miterlimit="10" stroke-linecap="round" stroke-linejoin="round"/>
<path d="M16.2583 30.2153L19.4732 33.1579L15.9477 36.4911L13.2617 33.0143L16.2583 30.2153Z" fill="white" stroke="#08090C" stroke-miterlimit="10" stroke-linecap="round" stroke-linejoin="round"/>
<path d="M22.856 30.2153L19.6411 33.1579L23.1665 36.4911L25.8526 33.0143L22.856 30.2153Z" fill="white" stroke="#08090C" stroke-miterlimit="10" stroke-linecap="round" stroke-linejoin="round"/>
<path d="M19.0224 33.5234L18.5128 33.4468L17.7483 34.7113L17.7847 35.0562L18.804 36.474L17.8211 40.7276H21.5707L20.333 36.474L21.3523 35.0562L21.3887 34.7113L20.6242 33.4468L20.1145 33.5234H19.0224Z" fill="#08090C"/>
</g>
</svg>
