<svg width="31" height="31" viewBox="0 0 31 31" fill="none" xmlns="http://www.w3.org/2000/svg">
<path d="M3.70829 13.1222C13.8573 14.4951 22.7133 6.32695 20.4604 3.94082C18.7212 2.09876 16.6652 4.1408 14.8941 6.83026C12.567 10.3642 12.4775 17.7991 7.46945 23.5177C5.02495 26.309 2.21125 28.0098 1.54187 25.3175C0.708035 21.9638 12.6329 13.5965 18.7379 16.6743C23.084 18.8653 15.9578 25.7065 14.2045 23.388C12.3973 20.9981 22.3803 15.648 25.8423 17.6353C28.3678 19.085 25.2146 22.2756 23.546 23.0906" stroke="black" stroke-width="2" stroke-linecap="round" stroke-linejoin="round"/>
<path d="M7.38911 28.6285C9.5976 26.856 12.8141 26.0219 17.581 27.3154C22.9189 28.7639 26.0708 29.055 29.1176 27.4157" stroke="black" stroke-width="2" stroke-linecap="round" stroke-linejoin="round"/>
</svg>
