<svg width="24" height="24" viewBox="0 0 24 24" fill="none" xmlns="http://www.w3.org/2000/svg">
<path d="M3.91382 10.3695C10.8731 11.3109 16.9458 5.70991 15.401 4.0737C14.2084 2.81058 12.7985 4.21084 11.5841 6.05503C9.98838 8.4783 9.92702 13.5765 6.4929 17.4978C4.81668 19.4119 2.88728 20.5781 2.42828 18.732C1.85651 16.4323 10.0336 10.6948 14.2198 12.8052C17.2001 14.3077 12.3135 18.9988 11.1112 17.4089C9.87199 15.7701 16.7175 12.1015 19.0914 13.4642C20.8232 14.4583 18.661 16.6461 17.5168 17.205" stroke="white" stroke-width="2" stroke-linecap="round" stroke-linejoin="round"/>
<path d="M6.43782 21.0025C7.95221 19.787 10.1578 19.2151 13.4266 20.1021C17.0868 21.0953 19.2481 21.2949 21.3373 20.1708" stroke="white" stroke-width="2" stroke-linecap="round" stroke-linejoin="round"/>
</svg>
