<svg width="6" height="24" viewBox="0 0 6 24" fill="none" xmlns="http://www.w3.org/2000/svg">
<mask id="path-1-inside-1" fill="white">
<path fill-rule="evenodd" clip-rule="evenodd" d="M-1.56165e-06 3C-1.63407e-06 4.65685 1.34314 6 3 6C4.65685 6 6 4.65686 6 3C6 1.34315 4.65685 -5.87108e-08 3 -1.31134e-07C1.34314 -2.03558e-07 -1.48922e-06 1.34315 -1.56165e-06 3ZM3 15C1.34315 15 -1.20123e-07 13.6569 -4.76996e-08 12C2.47238e-08 10.3431 1.34315 9 3 9C4.65685 9 6 10.3431 6 12C6 13.6569 4.65685 15 3 15ZM3 24C1.34315 24 -5.13525e-07 22.6569 -4.41102e-07 21C-3.68679e-07 19.3431 1.34315 18 3 18C4.65685 18 6 19.3431 6 21C6 22.6569 4.65685 24 3 24Z"/>
</mask>
<path fill-rule="evenodd" clip-rule="evenodd" d="M-1.56165e-06 3C-1.63407e-06 4.65685 1.34314 6 3 6C4.65685 6 6 4.65686 6 3C6 1.34315 4.65685 -5.87108e-08 3 -1.31134e-07C1.34314 -2.03558e-07 -1.48922e-06 1.34315 -1.56165e-06 3ZM3 15C1.34315 15 -1.20123e-07 13.6569 -4.76996e-08 12C2.47238e-08 10.3431 1.34315 9 3 9C4.65685 9 6 10.3431 6 12C6 13.6569 4.65685 15 3 15ZM3 24C1.34315 24 -5.13525e-07 22.6569 -4.41102e-07 21C-3.68679e-07 19.3431 1.34315 18 3 18C4.65685 18 6 19.3431 6 21C6 22.6569 4.65685 24 3 24Z" fill="white"/>
<path d="M3 4C2.44771 4 2 3.55229 2 3L-2 3C-2 5.76142 0.238575 8 3 8L3 4ZM4 3C4 3.55229 3.55228 4 3 4L3 8C5.76142 8 8 5.76143 8 3L4 3ZM3 2C3.55228 2 4 2.44772 4 3L8 3C8 0.238576 5.76142 -2 3 -2L3 2ZM2 3C2 2.44772 2.44771 2 3 2L3 -2C0.238575 -2 -2 0.238576 -2 3L2 3ZM-2 12C-2 14.7614 0.238576 17 3 17L3 13C2.44772 13 2 12.5523 2 12L-2 12ZM3 7C0.238576 7 -2 9.23858 -2 12L2 12C2 11.4477 2.44772 11 3 11L3 7ZM8 12C8 9.23858 5.76143 7 3 7L3 11C3.55228 11 4 11.4477 4 12L8 12ZM3 17C5.76142 17 8 14.7614 8 12L4 12C4 12.5523 3.55228 13 3 13L3 17ZM-2 21C-2 23.7614 0.238575 26 3 26L3 22C2.44772 22 2 21.5523 2 21L-2 21ZM3 16C0.238577 16 -2 18.2386 -2 21L2 21C2 20.4477 2.44771 20 3 20L3 16ZM8 21C8 18.2386 5.76143 16 3 16L3 20C3.55228 20 4 20.4477 4 21L8 21ZM3 26C5.76143 26 8 23.7614 8 21L4 21C4 21.5523 3.55228 22 3 22L3 26Z" fill="white" mask="url(#path-1-inside-1)"/>
</svg>
